<?xml version="1.0" encoding="utf-8"?>
<!DOCTYPE svg PUBLIC "-//W3C//DTD SVG 1.0//EN" "http://www.w3.org/TR/2001/REC-SVG-20010904/DTD/svg10.dtd">
<svg version="1.0" xmlns="http://www.w3.org/2000/svg" width="48px" height="48px" viewBox="0 0 48 48" preserveAspectRatio="xMidYMid meet">
 <g fill="#fffefe">
  <path d="M0 24 l0 -24 24 0 24 0 0 24 0 24 -24 0 -24 0 0 -24z m13.05 21.84 c0.26 -0.03 2.11 -0.26 4.13 -0.52 2.50 -0.32 3.76 -0.50 3.98 -0.57 1.35 -0.42 2.66 -1.58 3.33 -2.97 0.42 -0.87 0.56 -1.47 0.55 -2.42 l-0 -0.69 0.20 0 c0.20 0 0.21 0.01 0.90 0.74 1.30 1.37 2.19 2.29 2.55 2.61 0.91 0.84 2.08 1.35 3.21 1.42 0.40 0.02 0.85 -0.02 3.16 -0.30 1.48 -0.19 3.55 -0.44 4.59 -0.57 2.42 -0.30 2.79 -0.39 3.65 -0.97 0.97 -0.65 1.80 -1.76 2.18 -2.90 0.55 -1.67 0.34 -3.45 -0.56 -4.61 -0.19 -0.24 -1.51 -1.69 -3.40 -3.73 -0.47 -0.51 -1.37 -1.48 -2 -2.15 -0.62 -0.67 -1.26 -1.37 -1.43 -1.55 -0.16 -0.18 -1.02 -1.11 -1.89 -2.06 -0.88 -0.95 -1.93 -2.09 -2.33 -2.53 -0.67 -0.72 -0.74 -0.82 -0.74 -0.97 0 -0.15 0.08 -0.27 0.67 -0.98 0.37 -0.45 1.53 -1.87 2.59 -3.16 1.05 -1.29 2.14 -2.61 2.40 -2.93 1.46 -1.78 2.55 -3.11 2.78 -3.42 1.19 -1.59 1.36 -3.47 0.49 -5.27 -0.83 -1.73 -2.44 -2.97 -4.24 -3.28 -0.70 -0.12 -0.75 -0.12 -4.37 0.30 -0.68 0.08 -1.41 0.16 -1.62 0.19 -0.21 0.02 -1.02 0.12 -1.80 0.21 -2.87 0.33 -3.45 0.40 -3.71 0.47 -0.68 0.17 -1.49 0.71 -2.13 1.41 -0.21 0.23 -0.96 1.13 -1.66 2.01 -1.23 1.54 -1.28 1.59 -1.43 1.59 -0.15 0 -0.16 -0.01 -0.29 -0.34 -0.27 -0.69 -0.68 -1.30 -1.28 -1.89 -1 -1 -2.36 -1.60 -3.61 -1.59 -0.32 0 -1.32 0.10 -2.26 0.24 -0.18 0.02 -1.19 0.15 -2.25 0.28 -4.70 0.58 -4.40 0.54 -4.95 0.71 -2.18 0.69 -3.81 2.76 -3.92 4.98 -0.03 0.49 0 0.70 0.61 4.69 0.77 5.03 1.07 7.02 1.20 7.83 0.10 0.69 0.90 5.87 2.04 13.34 0.45 2.95 0.82 5.21 0.89 5.46 0.24 0.86 0.72 1.67 1.40 2.34 0.73 0.73 1.56 1.21 2.48 1.45 0.42 0.11 1.09 0.21 1.32 0.18 0.05 -0 0.30 -0.03 0.56 -0.06z"/>
 </g>
 <g fill="#ffea04">
  <path d="M11.58 44.11 c-1.28 -0.35 -2.31 -1.33 -2.67 -2.55 -0.05 -0.18 -0.14 -0.60 -0.19 -0.94 -0.05 -0.33 -0.31 -2.04 -0.59 -3.80 -0.27 -1.75 -0.68 -4.43 -0.91 -5.95 -0.23 -1.52 -0.74 -4.83 -1.13 -7.36 -0.39 -2.53 -0.81 -5.30 -0.94 -6.16 -0.13 -0.86 -0.31 -2.04 -0.40 -2.63 -0.34 -2.21 -0.48 -3.22 -0.52 -3.56 -0.06 -0.73 0.13 -1.59 0.50 -2.23 0.26 -0.45 0.99 -1.16 1.42 -1.40 0.69 -0.38 0.68 -0.38 4.66 -0.88 2.03 -0.25 3.96 -0.50 4.29 -0.54 0.98 -0.12 1.54 -0.03 2.32 0.34 0.39 0.19 0.51 0.28 0.94 0.71 0.41 0.42 0.53 0.57 0.71 0.92 0.12 0.23 0.25 0.54 0.29 0.68 0.04 0.14 0.18 0.98 0.31 1.88 0.13 0.89 0.24 1.65 0.25 1.68 0 0.04 1.26 -1.50 2.79 -3.41 1.53 -1.91 2.87 -3.55 2.98 -3.65 0.24 -0.21 0.57 -0.38 0.84 -0.44 0.11 -0.02 0.94 -0.13 1.84 -0.24 0.90 -0.10 2.97 -0.35 4.59 -0.54 4 -0.48 4.48 -0.49 5.38 -0.15 0.92 0.35 1.83 1.20 2.22 2.09 0.24 0.54 0.31 0.92 0.31 1.63 0 0.77 -0.09 1.20 -0.37 1.71 -0.19 0.37 -0.35 0.56 -2.62 3.33 -0.88 1.07 -2.08 2.54 -2.67 3.26 -0.59 0.72 -1.78 2.18 -2.65 3.23 -0.87 1.06 -1.59 1.95 -1.61 1.98 -0.02 0.04 0.44 0.57 1.27 1.45 1.29 1.38 2 2.16 3.93 4.26 1.04 1.13 2.87 3.12 5.64 6.11 0.91 0.98 1.74 1.90 1.84 2.03 0.22 0.30 0.30 0.58 0.37 1.26 0.15 1.56 -0.27 2.82 -1.20 3.71 -0.31 0.30 -0.74 0.56 -1.06 0.68 -0.21 0.07 -0.33 0.09 -1.54 0.24 -0.32 0.04 -0.75 0.09 -0.94 0.12 -0.19 0.03 -0.72 0.09 -1.17 0.14 -0.45 0.05 -0.98 0.12 -1.18 0.14 -0.20 0.03 -0.53 0.07 -0.74 0.09 -0.21 0.03 -0.54 0.07 -0.75 0.09 -0.21 0.03 -0.55 0.07 -0.76 0.09 -0.22 0.03 -0.52 0.07 -0.69 0.09 -1.16 0.17 -2.12 0.18 -2.70 0.02 -0.64 -0.17 -1.28 -0.56 -1.93 -1.18 -0.15 -0.15 -1.22 -1.24 -2.37 -2.43 -1.14 -1.19 -2.58 -2.66 -3.19 -3.28 -0.61 -0.62 -1.15 -1.18 -1.20 -1.24 l-0.10 -0.12 0.02 0.14 c0.01 0.08 0.21 1.37 0.43 2.88 0.38 2.56 0.40 2.78 0.38 3.28 -0.05 1 -0.35 1.73 -1.05 2.52 -0.31 0.35 -0.58 0.56 -1.01 0.79 -0.39 0.21 -0.67 0.27 -1.73 0.39 -0.44 0.05 -1.13 0.14 -1.55 0.19 -0.41 0.05 -0.92 0.12 -1.13 0.14 -0.21 0.03 -0.52 0.07 -0.70 0.09 -0.18 0.03 -0.39 0.06 -0.47 0.07 -0.08 0.01 -0.45 0.06 -0.82 0.10 -0.38 0.04 -0.82 0.09 -0.98 0.12 -0.17 0.02 -0.68 0.06 -1.13 0.07 -0.72 0.02 -0.86 0.01 -1.17 -0.07z m4.59 -3.66 c2.09 -0.26 3.45 -0.46 3.55 -0.50 0.08 -0.04 0.20 -0.15 0.25 -0.23 0.12 -0.19 0.12 -0.15 -0.12 -1.75 -0.09 -0.60 -0.24 -1.58 -0.33 -2.18 -0.09 -0.59 -0.30 -1.99 -0.47 -3.11 -0.17 -1.12 -0.30 -2.14 -0.30 -2.27 0 -0.15 0.03 -0.29 0.08 -0.37 0.07 -0.11 0.70 -0.89 1.35 -1.66 0.13 -0.15 0.34 -0.41 0.47 -0.57 0.22 -0.27 0.25 -0.29 0.43 -0.29 0.19 0 0.20 0.01 1.73 1.58 0.84 0.87 1.90 1.95 2.34 2.40 0.44 0.45 1.13 1.16 1.53 1.57 2.85 2.95 5.04 5.19 5.18 5.27 0.20 0.13 0.31 0.12 1.89 -0.07 0.74 -0.09 1.94 -0.24 2.66 -0.33 0.72 -0.09 1.77 -0.22 2.32 -0.28 2.37 -0.29 2.34 -0.28 2.49 -0.43 0.08 -0.07 0.14 -0.17 0.14 -0.21 0 -0.07 -1.58 -1.77 -3.21 -3.46 -0.23 -0.24 -0.85 -0.89 -1.36 -1.43 -0.51 -0.54 -1.13 -1.19 -1.36 -1.43 -0.23 -0.24 -0.91 -0.95 -1.50 -1.57 -1.85 -1.94 -5.52 -5.75 -6.73 -6.98 -0.43 -0.44 -0.82 -0.84 -0.85 -0.89 -0.04 -0.05 -0.08 -0.18 -0.08 -0.29 0 -0.22 -0.22 0.07 2.16 -2.81 0.53 -0.64 1.80 -2.18 2.81 -3.41 1.02 -1.24 2.40 -2.92 3.07 -3.73 1.13 -1.37 2.70 -3.29 3.38 -4.13 0.16 -0.20 0.29 -0.38 0.30 -0.42 0 -0.13 -0.15 -0.24 -0.32 -0.24 -0.18 0 -0.97 0.09 -4.41 0.49 -3.02 0.35 -4.08 0.48 -4.83 0.56 -0.35 0.04 -0.66 0.10 -0.68 0.13 -0.05 0.05 -1.85 2.32 -3.49 4.41 -0.42 0.54 -1.43 1.81 -2.24 2.84 -0.81 1.02 -1.88 2.39 -2.39 3.03 -2.09 2.65 -1.96 2.51 -2.14 2.51 -0.09 0 -0.16 -0.02 -0.16 -0.05 0 -0.03 -0.08 -0.61 -0.19 -1.30 -0.31 -2.10 -0.78 -5.32 -1.08 -7.39 -0.17 -1.19 -0.31 -2.03 -0.36 -2.13 -0.05 -0.09 -0.14 -0.21 -0.21 -0.26 l-0.13 -0.09 -1.37 0.18 c-0.75 0.09 -2.40 0.30 -3.65 0.45 -1.25 0.15 -2.37 0.30 -2.48 0.33 -0.24 0.06 -0.41 0.20 -0.49 0.40 -0.05 0.12 -0.01 0.44 0.29 2.44 0.19 1.27 0.41 2.72 0.49 3.23 0.08 0.52 0.21 1.43 0.30 2.04 0.74 4.93 1.05 7.03 1.29 8.67 0.15 1.05 0.32 2.17 0.38 2.51 0.05 0.34 0.25 1.66 0.44 2.95 0.19 1.29 0.45 3.04 0.58 3.89 0.13 0.85 0.33 2.19 0.45 2.97 0.13 0.84 0.24 1.47 0.29 1.55 0.04 0.07 0.14 0.17 0.22 0.23 0.19 0.14 -0.06 0.16 4.11 -0.37z"/>
 </g>
 <g fill="#612595">
  <path d="M11.87 46.03 c-0.84 -0.08 -1.80 -0.44 -2.53 -0.94 -0.77 -0.52 -1.51 -1.41 -1.91 -2.24 -0.35 -0.74 -0.19 0.18 -2.54 -15.12 -0.32 -2.11 -0.63 -4.12 -0.68 -4.45 -0.12 -0.81 -0.42 -2.78 -1.20 -7.83 l-0.64 -4.17 0.02 -0.66 c0.05 -1.39 0.56 -2.57 1.54 -3.61 0.68 -0.73 1.47 -1.22 2.38 -1.51 0.55 -0.17 0.25 -0.13 4.95 -0.71 1.06 -0.13 2.07 -0.26 2.25 -0.28 2.27 -0.31 2.84 -0.32 3.75 -0.07 1.64 0.46 3.08 1.76 3.68 3.31 0.07 0.19 0.15 0.33 0.17 0.31 0.02 -0.01 0.60 -0.73 1.29 -1.59 0.69 -0.86 1.43 -1.76 1.64 -1.99 0.64 -0.70 1.46 -1.24 2.13 -1.41 0.26 -0.07 0.84 -0.14 3.71 -0.47 0.79 -0.09 1.60 -0.18 1.80 -0.21 0.50 -0.06 2.61 -0.31 3.84 -0.45 1.55 -0.18 2.32 -0.14 3.19 0.15 1.50 0.50 2.76 1.62 3.47 3.09 0.90 1.86 0.72 3.94 -0.49 5.55 -0.23 0.31 -1.32 1.65 -2.78 3.42 -0.27 0.32 -1.35 1.64 -2.40 2.93 -1.06 1.29 -2.23 2.71 -2.59 3.16 -0.37 0.45 -0.67 0.83 -0.67 0.84 0 0.01 0.33 0.39 0.74 0.83 0.40 0.44 1.45 1.58 2.33 2.53 0.88 0.95 1.73 1.88 1.89 2.06 0.17 0.18 0.81 0.88 1.43 1.55 0.62 0.67 1.52 1.64 2 2.15 3.07 3.31 3.47 3.77 3.74 4.25 0.72 1.29 0.69 3.56 -0.07 5.08 -0.44 0.89 -1.14 1.70 -1.89 2.20 -0.86 0.57 -1.23 0.67 -3.65 0.97 -1.05 0.13 -3.11 0.38 -4.59 0.57 -2.47 0.31 -2.75 0.33 -3.30 0.31 -1.25 -0.05 -2.38 -0.53 -3.35 -1.42 -0.36 -0.32 -1.25 -1.24 -2.55 -2.61 -0.38 -0.40 -0.72 -0.74 -0.75 -0.74 -0.03 0 -0.05 0.22 -0.05 0.67 -0 0.96 -0.15 1.59 -0.56 2.45 -0.67 1.39 -1.98 2.55 -3.33 2.97 -0.22 0.07 -1.44 0.24 -3.82 0.55 -3.75 0.47 -5.04 0.63 -5.16 0.62 -0.04 -0 -0.24 -0.02 -0.45 -0.05z m1.86 -2.05 c0.17 -0.02 0.61 -0.08 0.98 -0.12 0.38 -0.04 0.75 -0.08 0.82 -0.10 0.08 -0.01 0.29 -0.04 0.47 -0.07 0.18 -0.02 0.50 -0.07 0.70 -0.09 0.21 -0.02 0.71 -0.09 1.13 -0.14 0.41 -0.06 1.11 -0.14 1.55 -0.19 1.06 -0.13 1.35 -0.19 1.73 -0.39 0.44 -0.23 0.70 -0.44 1.01 -0.79 0.67 -0.75 1 -1.51 1.05 -2.40 0.02 -0.32 -0.04 -0.84 -0.40 -3.26 -0.23 -1.58 -0.43 -2.97 -0.44 -3.07 -0.02 -0.27 0.13 -0.28 0.34 -0.04 0.08 0.10 0.65 0.68 1.26 1.30 0.61 0.62 2.04 2.10 3.19 3.28 2.36 2.45 2.52 2.60 3 2.97 0.98 0.74 1.85 0.89 3.70 0.62 0.17 -0.02 0.48 -0.07 0.69 -0.09 0.21 -0.02 0.55 -0.07 0.76 -0.09 0.21 -0.02 0.54 -0.07 0.75 -0.09 0.21 -0.02 0.54 -0.07 0.74 -0.09 0.20 -0.02 0.73 -0.09 1.18 -0.14 0.45 -0.05 0.98 -0.11 1.17 -0.14 0.19 -0.02 0.61 -0.08 0.94 -0.12 1.20 -0.15 1.33 -0.17 1.54 -0.24 0.32 -0.11 0.75 -0.38 1.06 -0.68 0.90 -0.86 1.33 -2.08 1.20 -3.47 -0.06 -0.64 -0.15 -0.92 -0.37 -1.21 -0.10 -0.13 -0.93 -1.05 -1.84 -2.03 -2.75 -2.97 -4.61 -4.97 -5.64 -6.11 -1.96 -2.14 -2.60 -2.84 -3.95 -4.28 -0.75 -0.81 -1.37 -1.50 -1.37 -1.53 0 -0.03 0.75 -0.97 1.68 -2.10 0.92 -1.12 2.15 -2.62 2.72 -3.33 0.58 -0.71 1.77 -2.16 2.65 -3.23 2.27 -2.77 2.43 -2.96 2.62 -3.33 0.47 -0.90 0.49 -2.08 0.06 -3.06 -0.50 -1.12 -1.69 -2.06 -2.91 -2.28 -0.49 -0.09 -1.14 -0.04 -4.41 0.35 -1.62 0.20 -3.69 0.44 -4.59 0.54 -0.90 0.11 -1.73 0.22 -1.84 0.24 -0.27 0.06 -0.60 0.23 -0.84 0.44 -0.17 0.15 -2.19 2.64 -5.13 6.34 -0.45 0.58 -0.84 1.03 -0.85 1.01 -0.01 -0.02 -0.14 -0.84 -0.28 -1.82 -0.15 -0.98 -0.30 -1.89 -0.34 -2.03 -0.04 -0.14 -0.17 -0.45 -0.29 -0.68 -0.18 -0.35 -0.30 -0.51 -0.69 -0.90 -0.65 -0.66 -1.27 -0.98 -2.09 -1.10 -0.40 -0.06 -0.08 -0.09 -5.21 0.56 -3.98 0.51 -3.97 0.51 -4.66 0.88 -0.43 0.23 -1.16 0.95 -1.42 1.40 -0.38 0.65 -0.55 1.44 -0.48 2.16 0.04 0.36 0.11 0.86 0.49 3.35 0.09 0.58 0.27 1.76 0.40 2.63 0.13 0.86 0.55 3.64 0.94 6.16 0.38 2.53 0.89 5.84 1.13 7.36 0.23 1.52 0.64 4.20 0.91 5.95 0.27 1.75 0.53 3.46 0.59 3.80 0.05 0.34 0.14 0.75 0.19 0.94 0.37 1.23 1.39 2.21 2.67 2.55 0.30 0.08 0.45 0.09 1.03 0.07 0.38 -0.01 0.82 -0.04 0.98 -0.07z"/>
  <path d="M12.12 41.06 c-0.16 -0.05 -0.30 -0.16 -0.41 -0.32 -0.05 -0.08 -0.15 -0.61 -0.29 -1.55 -0.12 -0.79 -0.32 -2.12 -0.45 -2.98 -0.13 -0.85 -0.39 -2.60 -0.58 -3.89 -0.19 -1.29 -0.39 -2.62 -0.44 -2.95 -0.05 -0.33 -0.22 -1.46 -0.38 -2.51 -0.15 -1.05 -0.47 -3.17 -0.71 -4.73 -0.55 -3.71 -0.62 -4.15 -0.84 -5.63 -0.10 -0.68 -0.35 -2.32 -0.54 -3.63 -0.22 -1.50 -0.35 -2.45 -0.33 -2.55 0.04 -0.23 0.27 -0.46 0.50 -0.52 0.11 -0.03 1.25 -0.18 2.52 -0.33 1.27 -0.15 2.89 -0.36 3.59 -0.45 1.55 -0.20 1.70 -0.21 1.89 -0.05 0.08 0.07 0.16 0.19 0.19 0.27 0.03 0.08 0.17 1.03 0.33 2.10 0.15 1.07 0.46 3.17 0.68 4.66 0.22 1.50 0.45 3.01 0.50 3.38 0.06 0.36 0.10 0.67 0.11 0.67 0.02 0.02 0.44 -0.51 2 -2.50 0.51 -0.64 1.58 -2.01 2.39 -3.03 0.81 -1.02 1.81 -2.30 2.24 -2.84 1.65 -2.09 3.44 -4.36 3.49 -4.41 0.03 -0.03 0.34 -0.09 0.68 -0.13 0.75 -0.08 1.80 -0.21 4.83 -0.56 3.72 -0.44 4.23 -0.49 4.56 -0.49 0.28 0 0.32 0.01 0.41 0.12 0.17 0.21 0.13 0.35 -0.22 0.78 -0.37 0.45 -1.18 1.45 -3.18 3.88 -0.77 0.94 -2.01 2.44 -2.74 3.33 -0.73 0.89 -1.77 2.15 -2.31 2.80 -0.53 0.66 -1.47 1.78 -2.07 2.50 -0.60 0.72 -1.11 1.35 -1.13 1.40 -0.06 0.12 -0 0.18 0.90 1.10 1.21 1.23 4.88 5.04 6.74 6.99 0.59 0.62 1.27 1.33 1.50 1.57 0.24 0.24 0.85 0.89 1.36 1.43 0.51 0.54 1.13 1.19 1.36 1.43 1.55 1.61 3.17 3.35 3.21 3.45 0.08 0.20 0.06 0.30 -0.11 0.47 -0.17 0.19 -0.04 0.16 -2.52 0.46 -0.55 0.07 -1.60 0.19 -2.32 0.28 -5.06 0.62 -4.52 0.58 -4.77 0.43 -0.17 -0.10 -2.05 -2.01 -5.23 -5.31 -0.40 -0.41 -1.09 -1.12 -1.53 -1.57 -0.44 -0.45 -1.50 -1.53 -2.34 -2.40 -0.85 -0.87 -1.57 -1.58 -1.60 -1.58 -0.03 0 -0.09 0.04 -0.12 0.09 -0.07 0.10 -0.47 0.58 -1.40 1.72 -0.34 0.41 -0.63 0.80 -0.64 0.86 -0.02 0.06 0 0.34 0.05 0.61 0.04 0.28 0.21 1.41 0.38 2.52 0.16 1.11 0.41 2.72 0.54 3.59 0.13 0.86 0.26 1.78 0.30 2.03 0.05 0.32 0.06 0.50 0.02 0.62 -0.05 0.19 -0.27 0.43 -0.43 0.46 -0.06 0.02 -1.63 0.22 -3.48 0.45 -1.86 0.23 -3.51 0.45 -3.68 0.47 -0.35 0.05 -0.31 0.05 -0.49 -0z"/>
 </g>
</svg>