<svg xmlns="http://www.w3.org/2000/svg" xmlns:xlink="http://www.w3.org/1999/xlink" width="61" zoomAndPan="magnify" viewBox="0 0 45.75 43.499998" height="58" preserveAspectRatio="xMidYMid meet" version="1.0"><defs><filter x="0%" y="0%" width="100%" height="100%" id="b61365b413"><feColorMatrix values="0 0 0 0 1 0 0 0 0 1 0 0 0 0 1 0 0 0 1 0" color-interpolation-filters="sRGB"/></filter><mask id="7783cf8b49"><g filter="url(#b61365b413)"><rect x="-4.575" width="54.9" fill="#000000" y="-4.35" height="52.199998" fill-opacity="0.15"/></g></mask><clipPath id="6bd8be20ea"><path d="M 18 15 L 30 15 L 30 28 L 18 28 Z M 18 15 " clip-rule="nonzero"/></clipPath><clipPath id="c3c0240008"><path d="M -0.863281 15.207031 L 30.066406 -0.855469 L 43.734375 25.46875 L 12.804688 41.527344 Z M -0.863281 15.207031 " clip-rule="nonzero"/></clipPath><clipPath id="eb1fa73088"><path d="M -0.863281 15.207031 L 30.066406 -0.855469 L 43.734375 25.46875 L 12.804688 41.527344 Z M -0.863281 15.207031 " clip-rule="nonzero"/></clipPath><clipPath id="a1e3b523f4"><path d="M 21 2 L 40 2 L 40 25 L 21 25 Z M 21 2 " clip-rule="nonzero"/></clipPath><clipPath id="e687ed0ca2"><path d="M -0.863281 15.207031 L 30.066406 -0.855469 L 43.734375 25.46875 L 12.804688 41.527344 Z M -0.863281 15.207031 " clip-rule="nonzero"/></clipPath><clipPath id="2e0e987991"><path d="M -0.863281 15.207031 L 30.066406 -0.855469 L 43.734375 25.46875 L 12.804688 41.527344 Z M -0.863281 15.207031 " clip-rule="nonzero"/></clipPath><clipPath id="ccdc18c61f"><path d="M 5 18 L 26 18 L 26 37 L 5 37 Z M 5 18 " clip-rule="nonzero"/></clipPath><clipPath id="dfc590f2d2"><path d="M -0.863281 15.207031 L 30.066406 -0.855469 L 43.734375 25.46875 L 12.804688 41.527344 Z M -0.863281 15.207031 " clip-rule="nonzero"/></clipPath><clipPath id="b6be557098"><path d="M -0.863281 15.207031 L 30.066406 -0.855469 L 43.734375 25.46875 L 12.804688 41.527344 Z M -0.863281 15.207031 " clip-rule="nonzero"/></clipPath><clipPath id="86f9372fdc"><rect x="0" width="44" y="0" height="41"/></clipPath></defs><g mask="url(#7783cf8b49)"><g transform="matrix(1, 0, 0, 1, 1, 1)"><g clip-path="url(#86f9372fdc)"><g clip-path="url(#6bd8be20ea)"><g clip-path="url(#c3c0240008)"><g clip-path="url(#eb1fa73088)"><path fill="#6d2a93" d="M 29.550781 26.003906 C 25.746094 23.425781 22.511719 20.089844 20.078125 16.191406 C 19.390625 15.089844 17.585938 16.015625 18.277344 17.125 C 20.90625 21.335938 24.355469 24.933594 28.46875 27.71875 C 29.550781 28.449219 30.632812 26.734375 29.550781 26.003906 Z M 29.550781 26.003906 " fill-opacity="1" fill-rule="nonzero"/></g></g></g><g clip-path="url(#a1e3b523f4)"><g clip-path="url(#e687ed0ca2)"><g clip-path="url(#2e0e987991)"><path fill="#6d2a93" d="M 32.597656 15.101562 C 33.136719 12.878906 33.28125 10.574219 33.011719 8.292969 C 32.757812 6.125 31.871094 3.839844 29.75 2.902344 C 26.015625 1.25 22.265625 4.488281 21.398438 8.007812 C 20.792969 10.472656 21.074219 13.03125 21.390625 15.511719 C 21.558594 16.808594 23.539062 16.375 23.375 15.089844 C 22.929688 11.609375 22.402344 5.40625 27.113281 4.574219 C 32.722656 3.585938 31.113281 13.453125 30.148438 16.25 C 29.914062 16.925781 30.589844 17.777344 31.328125 17.550781 C 32.871094 17.066406 34.8125 16.382812 36.339844 17.285156 C 37.101562 17.734375 37.628906 18.671875 37.105469 19.5 C 36.484375 20.476562 35.0625 20.992188 34.019531 21.339844 C 32.722656 21.769531 31.335938 22.074219 29.972656 22.152344 C 28.679688 22.226562 28.566406 24.253906 29.871094 24.179688 C 31.75 24.070312 33.601562 23.675781 35.359375 22.996094 C 36.894531 22.402344 38.675781 21.445312 39.207031 19.761719 C 39.699219 18.195312 38.886719 16.558594 37.585938 15.671875 C 36.082031 14.648438 34.296875 14.71875 32.597656 15.101562 Z M 32.597656 15.101562 " fill-opacity="1" fill-rule="nonzero"/></g></g></g><g clip-path="url(#ccdc18c61f)"><g clip-path="url(#dfc590f2d2)"><g clip-path="url(#b6be557098)"><path fill="#6d2a93" d="M 16.820312 30.230469 C 16.347656 31.742188 16.15625 33.328125 16.921875 34.804688 C 17.683594 36.277344 19.367188 37.203125 21.003906 36.679688 C 22.503906 36.203125 23.484375 34.683594 24.136719 33.339844 C 24.890625 31.78125 25.410156 30.125 25.671875 28.414062 C 25.871094 27.121094 23.84375 27.03125 23.648438 28.3125 C 23.472656 29.441406 23.125 30.554688 22.699219 31.613281 C 22.289062 32.621094 21.738281 33.816406 20.847656 34.496094 C 20.019531 35.125 19.066406 34.648438 18.667969 33.761719 C 17.996094 32.28125 18.792969 30.574219 19.371094 29.199219 C 19.667969 28.492188 18.890625 27.734375 18.191406 27.902344 C 15.800781 28.480469 13.269531 28.574219 10.867188 28.003906 C 9.175781 27.601562 7.324219 26.652344 7.566406 24.636719 C 7.773438 22.917969 9.21875 21.644531 10.832031 21.203125 C 13.070312 20.589844 15.488281 21.128906 17.695312 21.625 C 18.960938 21.90625 19.582031 19.976562 18.304688 19.691406 C 15.496094 19.058594 12.425781 18.417969 9.636719 19.472656 C 7.46875 20.289062 5.773438 22.191406 5.539062 24.535156 C 5.289062 27.050781 7.070312 28.886719 9.316406 29.671875 C 11.667969 30.492188 14.324219 30.597656 16.820312 30.230469 Z M 16.820312 30.230469 " fill-opacity="1" fill-rule="nonzero"/></g></g></g></g></g></g></svg>