<svg xmlns="http://www.w3.org/2000/svg" xmlns:xlink="http://www.w3.org/1999/xlink" width="98" zoomAndPan="magnify" viewBox="0 0 73.5 60" height="80" preserveAspectRatio="xMidYMid meet" version="1.0"><defs><filter x="0%" y="0%" width="100%" height="100%" id="3dceaae663"><feColorMatrix values="0 0 0 0 1 0 0 0 0 1 0 0 0 0 1 0 0 0 1 0" color-interpolation-filters="sRGB"/></filter><clipPath id="8122821eec"><path d="M 0 0.203125 L 73 0.203125 L 73 59.796875 L 0 59.796875 Z M 0 0.203125 " clip-rule="nonzero"/></clipPath><mask id="936093eb53"><g filter="url(#3dceaae663)"><rect x="-7.35" width="88.2" fill="#000000" y="-6" height="72" fill-opacity="0.15"/></g></mask><clipPath id="796062d64c"><path d="M 9 4 L 65 4 L 65 57 L 9 57 Z M 9 4 " clip-rule="nonzero"/></clipPath><clipPath id="95b8f4b727"><path d="M 0 22.949219 L 58.289062 0.195312 L 72.378906 36.28125 L 14.085938 59.035156 Z M 0 22.949219 " clip-rule="nonzero"/></clipPath><clipPath id="d9f01acef1"><path d="M 0 22.949219 L 58.289062 0.195312 L 72.378906 36.28125 L 14.085938 59.035156 Z M 0 22.949219 " clip-rule="nonzero"/></clipPath><clipPath id="e63b5bc6f0"><rect x="0" width="73" y="0" height="60"/></clipPath></defs><g clip-path="url(#8122821eec)"><g mask="url(#936093eb53)"><g transform="matrix(1, 0, 0, 1, 0.000000000000000056, -0.000000000000011768)"><g clip-path="url(#e63b5bc6f0)"><g clip-path="url(#796062d64c)"><g clip-path="url(#95b8f4b727)"><g clip-path="url(#d9f01acef1)"><path fill="#6d2a93" d="M 61.542969 10.777344 C 58.804688 7.320312 54.277344 4.746094 49.808594 4.773438 C 46.730469 4.734375 43.847656 6.21875 41.59375 8.238281 C 40.671875 9.078125 39.773438 9.96875 39.15625 11.0625 C 39.085938 11.179688 39.015625 11.300781 38.945312 11.417969 C 36.820312 11.089844 34.621094 11.1875 32.566406 11.695312 C 30.4375 12.140625 28.605469 13.394531 26.78125 14.519531 C 23.78125 16.390625 20.339844 19.71875 19.289062 23.871094 C 19.011719 24.949219 18.867188 26.046875 18.839844 27.144531 C 18.484375 27.324219 18.132812 27.511719 17.785156 27.722656 C 14.75 29.554688 12.234375 32.367188 10.855469 35.640625 C 8.949219 40.316406 8.964844 45.902344 11.421875 50.375 C 12.980469 53.277344 15.878906 55.542969 19.144531 56.121094 C 19.792969 56.238281 20.464844 56.304688 21.125 56.242188 C 21.53125 56.199219 21.96875 56.207031 22.308594 55.957031 C 24.105469 55.003906 23.203125 52.265625 21.214844 52.46875 C 21.042969 52.472656 20.867188 52.484375 20.695312 52.492188 C 20.226562 52.445312 19.765625 52.34375 19.3125 52.222656 C 17.746094 51.535156 18.429688 51.894531 17.320312 51.109375 C 17.082031 50.941406 16.636719 50.523438 16.554688 50.453125 C 16.53125 50.429688 16.507812 50.40625 16.484375 50.386719 C 16.015625 49.878906 15.558594 49.347656 15.195312 48.757812 C 14.957031 48.292969 14.753906 47.8125 14.550781 47.332031 C 14.363281 46.875 14.195312 46.40625 14.0625 45.929688 C 13.359375 42.574219 13.757812 40.160156 14.390625 38.214844 C 15.359375 35.726562 15.484375 35.613281 17.332031 33.417969 C 17.945312 32.746094 18.632812 32.136719 19.375 31.613281 C 20.324219 35.199219 22.472656 38.492188 25.4375 40.707031 C 26.6875 41.578125 28.121094 42.101562 29.601562 42.433594 C 31.089844 42.792969 32.648438 42.636719 34.089844 42.152344 C 37.65625 40.839844 39.109375 36.953125 37.433594 33.574219 C 36.785156 32.210938 35.96875 30.921875 34.832031 29.902344 C 33.335938 28.625 31.605469 27.574219 29.753906 26.894531 C 27.746094 26.105469 25.699219 25.738281 23.6875 25.847656 C 23.726562 25.636719 23.777344 25.363281 23.847656 25.011719 C 24.167969 23.835938 24.296875 23.304688 25.992188 21.160156 C 27.183594 19.65625 29.050781 18.390625 31.769531 16.773438 C 32.417969 16.433594 33.101562 16.164062 33.808594 15.980469 C 33.824219 15.976562 33.835938 15.972656 33.847656 15.96875 C 35.820312 15.683594 36.316406 15.597656 37.371094 15.753906 C 36.679688 20.195312 37.96875 25.425781 41.664062 28.046875 C 42.613281 28.65625 43.652344 29.242188 44.796875 29.332031 C 47.160156 29.507812 49.742188 28.347656 50.597656 26.023438 C 51.476562 23.917969 50.871094 21.554688 49.945312 19.566406 C 49.59375 18.886719 49.238281 18.207031 48.824219 17.5625 C 48.011719 16.441406 47.007812 15.464844 45.996094 14.523438 C 45.113281 13.777344 44.132812 13.160156 43.089844 12.667969 C 43.101562 12.648438 43.113281 12.632812 43.121094 12.613281 C 43.976562 11.476562 43.695312 11.898438 44.375 11.261719 C 44.964844 10.773438 45.558594 10.289062 46.210938 9.886719 C 46.269531 9.855469 46.324219 9.824219 46.382812 9.789062 C 46.953125 9.484375 47.550781 9.234375 48.171875 9.058594 C 50.007812 8.777344 49.585938 8.859375 51.109375 9.011719 C 53.269531 9.425781 56.359375 11.15625 57.742188 13.148438 C 58.671875 14.542969 58.320312 13.816406 59.09375 15.828125 C 59.492188 17.183594 59.628906 17.355469 59.917969 19.738281 C 60.078125 22.179688 60.1875 21.792969 59.691406 24.386719 C 59.34375 26.710938 62.269531 27.984375 63.753906 26.167969 C 64.25 25.554688 64.28125 24.738281 64.425781 23.996094 C 64.691406 22.230469 64.613281 20.429688 64.398438 18.664062 C 63.976562 15.890625 63.289062 13.046875 61.542969 10.78125 Z M 30.035156 31.535156 C 30.585938 31.882812 31.117188 32.261719 31.621094 32.671875 C 31.777344 32.796875 31.925781 32.929688 32.070312 33.066406 C 32.125 33.128906 32.1875 33.1875 32.242188 33.253906 C 33.152344 34.398438 32.976562 34.320312 33.1875 34.664062 C 33.398438 35.089844 33.578125 35.53125 33.710938 35.988281 C 33.746094 36.148438 33.773438 36.304688 33.785156 36.46875 C 33.785156 36.476562 33.785156 36.484375 33.785156 36.492188 C 33.777344 36.582031 33.765625 36.671875 33.746094 36.757812 C 33.742188 36.789062 33.730469 36.824219 33.722656 36.855469 C 33.671875 36.988281 33.617188 37.121094 33.550781 37.25 C 33.46875 37.367188 33.378906 37.484375 33.285156 37.59375 C 33.191406 37.667969 33.097656 37.738281 32.996094 37.804688 C 32.183594 38.191406 32.207031 38.070312 31.984375 38.132812 C 31.753906 38.148438 31.660156 38.246094 30.683594 37.992188 C 30.367188 37.890625 30.054688 37.777344 29.75 37.648438 C 29.484375 37.542969 29.230469 37.414062 28.980469 37.273438 C 28.34375 36.863281 27.746094 36.394531 27.203125 35.867188 C 25.378906 33.808594 25.246094 33.46875 24.425781 31.5625 C 24.121094 30.636719 23.964844 30.238281 23.867188 29.855469 C 24.511719 29.800781 25.167969 29.824219 25.820312 29.957031 C 27.339844 30.308594 27.992188 30.445312 30.035156 31.535156 Z M 46.324219 23.351562 C 46.34375 23.519531 46.359375 23.683594 46.371094 23.851562 C 46.367188 23.882812 46.367188 23.914062 46.359375 23.949219 C 46.351562 24.003906 46.335938 24.058594 46.324219 24.109375 C 46.28125 24.21875 46.234375 24.324219 46.183594 24.429688 C 46.164062 24.441406 46.144531 24.457031 46.125 24.46875 C 45.988281 24.527344 45.847656 24.578125 45.703125 24.621094 C 45.554688 24.644531 45.410156 24.660156 45.261719 24.667969 C 45.253906 24.667969 45.246094 24.667969 45.238281 24.667969 C 44.992188 24.566406 44.75 24.453125 44.519531 24.324219 C 44.25 24.140625 43.996094 23.9375 43.757812 23.714844 C 43.734375 23.6875 43.707031 23.660156 43.683594 23.632812 C 43.410156 23.320312 43.164062 22.984375 42.949219 22.628906 C 42.746094 22.230469 42.574219 21.816406 42.417969 21.394531 C 41.824219 19.511719 42.09375 20.695312 41.78125 18.6875 C 41.746094 17.910156 41.710938 17.484375 41.726562 17.070312 C 41.757812 17.085938 41.785156 17.097656 41.816406 17.113281 C 43.648438 18.40625 43.519531 18.476562 44.574219 19.632812 C 45.648438 21.101562 44.988281 20.039062 45.832031 21.75 C 46.359375 23.085938 46.261719 23.078125 46.320312 23.355469 Z M 46.324219 23.351562 " fill-opacity="1" fill-rule="nonzero"/></g></g></g></g></g></g></g></svg>