<svg xmlns="http://www.w3.org/2000/svg" xmlns:xlink="http://www.w3.org/1999/xlink" width="38" zoomAndPan="magnify" viewBox="0 0 28.5 30.000001" height="40" preserveAspectRatio="xMidYMid meet" version="1.0"><defs><filter x="0%" y="0%" width="100%" height="100%" id="ec2f2a6255"><feColorMatrix values="0 0 0 0 1 0 0 0 0 1 0 0 0 0 1 0 0 0 1 0" color-interpolation-filters="sRGB"/></filter><clipPath id="c919a72846"><path d="M 0.21875 0 L 27.796875 0 L 27.796875 29 L 0.21875 29 Z M 0.21875 0 " clip-rule="nonzero"/></clipPath><mask id="a60d5467e9"><g filter="url(#ec2f2a6255)"><rect x="-2.85" width="34.2" fill="#000000" y="-3" height="36.000001" fill-opacity="0.15"/></g></mask><clipPath id="ca71f81be6"><path d="M 0.21875 0 L 27.074219 0 L 27.074219 28.800781 L 0.21875 28.800781 Z M 0.21875 0 " clip-rule="nonzero"/></clipPath><clipPath id="beb3d4dd7a"><rect x="0" width="28" y="0" height="29"/></clipPath></defs><g clip-path="url(#c919a72846)"><g mask="url(#a60d5467e9)"><g transform="matrix(1, 0, 0, 1, 0, 0.000000000000005692)"><g clip-path="url(#beb3d4dd7a)"><g clip-path="url(#ca71f81be6)"><path fill="#6d2a93" d="M 15.851562 0.00390625 C 16.015625 0.0117188 16.09375 0.0195312 16.125 0.0429688 C 16.148438 0.0585938 16.207031 0.0703125 16.269531 0.0703125 C 16.328125 0.0703125 16.386719 0.0820312 16.40625 0.0976562 C 16.429688 0.113281 16.464844 0.125 16.488281 0.125 C 16.511719 0.125 16.5625 0.136719 16.601562 0.15625 C 16.636719 0.171875 16.695312 0.199219 16.726562 0.210938 C 16.757812 0.222656 16.832031 0.257812 16.894531 0.285156 C 16.953125 0.316406 17.027344 0.359375 17.050781 0.382812 C 17.078125 0.40625 17.109375 0.425781 17.121094 0.421875 C 17.132812 0.421875 17.164062 0.441406 17.1875 0.460938 C 17.210938 0.484375 17.277344 0.523438 17.332031 0.550781 C 17.386719 0.578125 17.449219 0.613281 17.46875 0.632812 C 17.484375 0.652344 17.515625 0.667969 17.535156 0.667969 C 17.558594 0.667969 17.578125 0.671875 17.582031 0.683594 C 17.589844 0.695312 17.625 0.71875 17.664062 0.738281 C 17.703125 0.757812 17.777344 0.816406 17.828125 0.871094 C 17.878906 0.921875 17.953125 0.988281 17.996094 1.015625 C 18.035156 1.046875 18.125 1.125 18.195312 1.199219 C 18.265625 1.269531 18.324219 1.335938 18.320312 1.34375 C 18.320312 1.351562 18.375 1.414062 18.4375 1.484375 C 18.503906 1.554688 18.589844 1.660156 18.632812 1.726562 C 18.675781 1.789062 18.710938 1.847656 18.710938 1.855469 C 18.710938 1.863281 18.738281 1.898438 18.773438 1.9375 C 18.804688 1.976562 18.863281 2.050781 18.894531 2.101562 C 18.925781 2.152344 18.957031 2.207031 18.957031 2.222656 C 18.957031 2.230469 18.980469 2.277344 19.011719 2.324219 C 19.042969 2.367188 19.066406 2.414062 19.066406 2.425781 C 19.066406 2.4375 19.082031 2.46875 19.101562 2.496094 C 19.121094 2.523438 19.164062 2.597656 19.195312 2.664062 C 19.226562 2.730469 19.253906 2.800781 19.253906 2.820312 C 19.253906 2.84375 19.265625 2.875 19.28125 2.898438 C 19.296875 2.917969 19.308594 2.953125 19.308594 2.976562 C 19.308594 3 19.328125 3.054688 19.351562 3.097656 C 19.375 3.140625 19.398438 3.191406 19.402344 3.203125 C 19.410156 3.21875 19.421875 3.261719 19.429688 3.292969 C 19.433594 3.324219 19.449219 3.359375 19.460938 3.363281 C 19.46875 3.367188 19.476562 3.394531 19.476562 3.425781 C 19.476562 3.453125 19.488281 3.496094 19.503906 3.523438 C 19.515625 3.546875 19.535156 3.605469 19.539062 3.648438 C 19.546875 3.691406 19.5625 3.730469 19.570312 3.738281 C 19.582031 3.742188 19.59375 3.789062 19.597656 3.839844 C 19.605469 3.890625 19.617188 3.9375 19.628906 3.941406 C 19.636719 3.949219 19.652344 3.992188 19.660156 4.039062 C 19.667969 4.085938 19.683594 4.132812 19.699219 4.144531 C 19.710938 4.15625 19.722656 4.171875 19.722656 4.183594 C 19.722656 4.195312 19.730469 4.214844 19.75 4.230469 C 19.773438 4.253906 19.78125 4.253906 19.824219 4.210938 C 19.847656 4.1875 19.875 4.148438 19.882812 4.128906 C 19.890625 4.109375 19.917969 4.066406 19.945312 4.035156 C 19.972656 4.003906 20.015625 3.949219 20.035156 3.910156 C 20.058594 3.871094 20.085938 3.839844 20.09375 3.839844 C 20.105469 3.839844 20.121094 3.816406 20.128906 3.789062 C 20.136719 3.757812 20.183594 3.695312 20.226562 3.640625 C 20.269531 3.585938 20.332031 3.507812 20.363281 3.464844 C 20.394531 3.421875 20.445312 3.351562 20.476562 3.308594 C 20.507812 3.265625 20.582031 3.171875 20.644531 3.105469 C 20.707031 3.039062 20.792969 2.941406 20.839844 2.886719 C 20.886719 2.832031 21.019531 2.691406 21.128906 2.574219 C 21.242188 2.457031 21.378906 2.335938 21.429688 2.300781 C 21.480469 2.269531 21.558594 2.199219 21.605469 2.152344 C 21.652344 2.101562 21.734375 2.035156 21.785156 2 C 21.835938 1.96875 21.910156 1.910156 21.953125 1.871094 C 21.992188 1.835938 22.03125 1.804688 22.039062 1.804688 C 22.046875 1.804688 22.089844 1.769531 22.136719 1.730469 C 22.183594 1.6875 22.230469 1.65625 22.242188 1.65625 C 22.25 1.65625 22.289062 1.628906 22.332031 1.59375 C 22.367188 1.558594 22.414062 1.523438 22.4375 1.515625 C 22.457031 1.511719 22.496094 1.484375 22.527344 1.460938 C 22.554688 1.433594 22.582031 1.414062 22.589844 1.414062 C 22.597656 1.414062 22.636719 1.386719 22.679688 1.355469 C 22.71875 1.328125 22.765625 1.300781 22.777344 1.300781 C 22.789062 1.300781 22.828125 1.277344 22.863281 1.25 C 22.894531 1.21875 22.949219 1.179688 22.984375 1.15625 C 23.015625 1.132812 23.054688 1.113281 23.066406 1.113281 C 23.078125 1.113281 23.144531 1.078125 23.210938 1.035156 C 23.277344 0.992188 23.355469 0.941406 23.386719 0.925781 C 23.421875 0.90625 23.546875 0.84375 23.675781 0.78125 C 23.800781 0.714844 23.914062 0.667969 23.925781 0.667969 C 23.9375 0.667969 23.964844 0.65625 23.984375 0.636719 C 24.007812 0.625 24.082031 0.582031 24.152344 0.546875 C 24.222656 0.511719 24.316406 0.480469 24.355469 0.472656 C 24.390625 0.464844 24.425781 0.453125 24.425781 0.441406 C 24.425781 0.429688 24.445312 0.421875 24.476562 0.421875 C 24.503906 0.421875 24.542969 0.414062 24.5625 0.398438 C 24.585938 0.382812 24.632812 0.367188 24.667969 0.363281 C 24.703125 0.355469 24.757812 0.335938 24.789062 0.320312 C 24.820312 0.304688 24.894531 0.292969 24.957031 0.292969 C 25.019531 0.292969 25.089844 0.28125 25.113281 0.265625 C 25.144531 0.25 25.214844 0.238281 25.308594 0.238281 C 25.386719 0.238281 25.484375 0.25 25.523438 0.261719 C 25.558594 0.277344 25.628906 0.292969 25.675781 0.300781 C 25.722656 0.308594 25.777344 0.328125 25.796875 0.339844 C 25.816406 0.355469 25.851562 0.367188 25.871094 0.367188 C 25.890625 0.367188 25.941406 0.394531 25.984375 0.421875 C 26.023438 0.457031 26.066406 0.480469 26.074219 0.480469 C 26.085938 0.480469 26.117188 0.5 26.140625 0.527344 C 26.167969 0.550781 26.210938 0.578125 26.242188 0.582031 C 26.269531 0.589844 26.289062 0.597656 26.289062 0.609375 C 26.289062 0.621094 26.3125 0.636719 26.34375 0.648438 C 26.371094 0.664062 26.421875 0.683594 26.457031 0.699219 C 26.496094 0.714844 26.585938 0.789062 26.660156 0.859375 C 26.734375 0.933594 26.832031 1.046875 26.875 1.113281 C 26.917969 1.179688 26.984375 1.289062 27.023438 1.363281 C 27.0625 1.4375 27.09375 1.511719 27.09375 1.53125 C 27.09375 1.546875 27.125 1.617188 27.160156 1.683594 C 27.195312 1.75 27.222656 1.820312 27.222656 1.839844 C 27.222656 1.855469 27.234375 1.886719 27.253906 1.90625 C 27.265625 1.929688 27.28125 1.972656 27.28125 2 C 27.28125 2.03125 27.292969 2.078125 27.308594 2.101562 C 27.324219 2.128906 27.335938 2.199219 27.335938 2.273438 C 27.335938 2.347656 27.34375 2.40625 27.363281 2.429688 C 27.378906 2.453125 27.394531 2.539062 27.402344 2.652344 C 27.40625 2.757812 27.414062 2.953125 27.414062 3.09375 C 27.414062 3.230469 27.40625 3.464844 27.398438 3.617188 C 27.386719 3.769531 27.375 3.90625 27.359375 3.929688 C 27.347656 3.953125 27.335938 4.015625 27.335938 4.070312 C 27.335938 4.125 27.324219 4.179688 27.308594 4.203125 C 27.292969 4.222656 27.28125 4.277344 27.28125 4.324219 C 27.277344 4.371094 27.265625 4.425781 27.253906 4.445312 C 27.234375 4.464844 27.222656 4.519531 27.222656 4.5625 C 27.222656 4.609375 27.214844 4.644531 27.203125 4.652344 C 27.1875 4.65625 27.167969 4.710938 27.160156 4.765625 C 27.152344 4.828125 27.132812 4.890625 27.121094 4.914062 C 27.105469 4.933594 27.09375 4.976562 27.09375 5.007812 C 27.089844 5.035156 27.082031 5.078125 27.066406 5.097656 C 27.046875 5.121094 27.039062 5.152344 27.039062 5.175781 C 27.035156 5.195312 27.023438 5.226562 27.007812 5.25 C 26.992188 5.269531 26.980469 5.308594 26.980469 5.339844 C 26.980469 5.367188 26.96875 5.410156 26.957031 5.441406 C 26.941406 5.46875 26.917969 5.527344 26.902344 5.574219 C 26.890625 5.621094 26.863281 5.675781 26.847656 5.695312 C 26.832031 5.71875 26.808594 5.761719 26.800781 5.800781 C 26.792969 5.835938 26.777344 5.886719 26.761719 5.910156 C 26.75 5.9375 26.738281 5.976562 26.738281 6 C 26.738281 6.023438 26.707031 6.113281 26.664062 6.199219 C 26.621094 6.289062 26.589844 6.363281 26.589844 6.367188 C 26.589844 6.375 26.574219 6.417969 26.550781 6.46875 C 26.53125 6.515625 26.5 6.578125 26.488281 6.605469 C 26.472656 6.636719 26.457031 6.671875 26.457031 6.691406 C 26.457031 6.707031 26.421875 6.796875 26.375 6.886719 C 26.328125 6.976562 26.289062 7.066406 26.289062 7.09375 C 26.289062 7.113281 26.273438 7.148438 26.253906 7.167969 C 26.234375 7.183594 26.214844 7.210938 26.214844 7.222656 C 26.214844 7.234375 26.179688 7.320312 26.132812 7.410156 C 26.085938 7.5 26.046875 7.582031 26.046875 7.589844 C 26.046875 7.601562 26.019531 7.65625 25.984375 7.707031 C 25.949219 7.761719 25.886719 7.871094 25.84375 7.953125 C 25.800781 8.035156 25.769531 8.109375 25.769531 8.117188 C 25.769531 8.125 25.742188 8.167969 25.710938 8.214844 C 25.679688 8.261719 25.648438 8.304688 25.636719 8.308594 C 25.628906 8.316406 25.589844 8.375 25.558594 8.445312 C 25.527344 8.515625 25.480469 8.589844 25.453125 8.617188 C 25.433594 8.644531 25.410156 8.671875 25.414062 8.683594 C 25.414062 8.691406 25.382812 8.734375 25.347656 8.773438 C 25.3125 8.808594 25.28125 8.851562 25.28125 8.867188 C 25.28125 8.875 25.257812 8.917969 25.226562 8.953125 C 25.195312 8.988281 25.167969 9.03125 25.167969 9.046875 C 25.167969 9.0625 25.144531 9.101562 25.113281 9.136719 C 25.082031 9.167969 25.058594 9.207031 25.058594 9.21875 C 25.058594 9.230469 25.035156 9.269531 25.003906 9.296875 C 24.972656 9.328125 24.945312 9.367188 24.945312 9.378906 C 24.945312 9.390625 24.914062 9.4375 24.875 9.480469 C 24.835938 9.523438 24.792969 9.582031 24.777344 9.609375 C 24.761719 9.636719 24.714844 9.703125 24.671875 9.757812 C 24.628906 9.8125 24.566406 9.890625 24.535156 9.929688 C 24.507812 9.96875 24.480469 10.011719 24.480469 10.023438 C 24.480469 10.035156 24.445312 10.078125 24.402344 10.121094 C 24.363281 10.160156 24.316406 10.21875 24.308594 10.246094 C 24.292969 10.269531 24.246094 10.34375 24.195312 10.402344 C 24.148438 10.464844 24.0625 10.570312 24.003906 10.644531 C 23.945312 10.714844 23.898438 10.78125 23.902344 10.792969 C 23.902344 10.800781 23.871094 10.839844 23.835938 10.875 C 23.796875 10.910156 23.746094 10.976562 23.71875 11.015625 C 23.691406 11.058594 23.636719 11.125 23.597656 11.164062 C 23.558594 11.207031 23.511719 11.265625 23.496094 11.296875 C 23.480469 11.324219 23.425781 11.398438 23.375 11.453125 C 23.324219 11.511719 23.265625 11.585938 23.246094 11.621094 C 23.222656 11.65625 23.171875 11.71875 23.128906 11.753906 C 23.082031 11.789062 23.039062 11.839844 23.027344 11.871094 C 23.015625 11.898438 22.945312 11.984375 22.875 12.0625 C 22.804688 12.136719 22.746094 12.210938 22.746094 12.21875 C 22.746094 12.230469 22.683594 12.300781 22.613281 12.378906 C 22.542969 12.453125 22.484375 12.527344 22.484375 12.535156 C 22.484375 12.546875 22.425781 12.617188 22.355469 12.691406 C 22.285156 12.765625 22.203125 12.859375 22.175781 12.902344 C 22.148438 12.941406 22.058594 13.050781 21.972656 13.140625 C 21.890625 13.234375 21.796875 13.34375 21.773438 13.382812 C 21.746094 13.425781 21.675781 13.503906 21.617188 13.558594 C 21.558594 13.613281 21.511719 13.667969 21.511719 13.679688 C 21.511719 13.691406 21.4375 13.785156 21.339844 13.882812 C 21.246094 13.984375 21.132812 14.105469 21.089844 14.15625 C 21.046875 14.207031 20.957031 14.308594 20.890625 14.386719 C 20.824219 14.460938 20.734375 14.558594 20.691406 14.597656 C 20.648438 14.640625 20.601562 14.695312 20.589844 14.722656 C 20.578125 14.75 20.484375 14.863281 20.378906 14.972656 C 20.273438 15.078125 20.1875 15.175781 20.1875 15.183594 C 20.1875 15.191406 20.164062 15.21875 20.136719 15.246094 C 20.105469 15.269531 20.015625 15.367188 19.933594 15.457031 C 19.851562 15.546875 19.757812 15.636719 19.722656 15.652344 C 19.683594 15.671875 19.621094 15.722656 19.582031 15.765625 C 19.539062 15.808594 19.472656 15.867188 19.429688 15.894531 C 19.371094 15.933594 19.339844 15.941406 19.242188 15.9375 C 19.15625 15.9375 19.109375 15.921875 19.074219 15.894531 C 19.039062 15.871094 19.007812 15.859375 18.980469 15.867188 C 18.957031 15.871094 18.910156 15.863281 18.878906 15.847656 C 18.84375 15.832031 18.75 15.765625 18.667969 15.699219 C 18.585938 15.636719 18.492188 15.554688 18.457031 15.523438 C 18.421875 15.484375 18.355469 15.375 18.300781 15.269531 C 18.25 15.167969 18.207031 15.0625 18.207031 15.035156 C 18.207031 14.996094 18.175781 14.949219 18.070312 14.84375 C 17.992188 14.765625 17.929688 14.6875 17.929688 14.675781 C 17.929688 14.660156 17.902344 14.621094 17.871094 14.585938 C 17.835938 14.554688 17.789062 14.488281 17.765625 14.441406 C 17.746094 14.394531 17.722656 14.34375 17.722656 14.335938 C 17.722656 14.320312 17.71875 14.308594 17.710938 14.304688 C 17.703125 14.300781 17.667969 14.246094 17.632812 14.179688 C 17.601562 14.113281 17.574219 14.046875 17.574219 14.03125 C 17.574219 14.015625 17.5625 13.984375 17.546875 13.964844 C 17.53125 13.945312 17.519531 13.910156 17.519531 13.890625 C 17.519531 13.871094 17.503906 13.832031 17.480469 13.800781 C 17.460938 13.773438 17.445312 13.730469 17.445312 13.710938 C 17.445312 13.683594 17.433594 13.648438 17.414062 13.628906 C 17.402344 13.609375 17.386719 13.574219 17.386719 13.550781 C 17.386719 13.527344 17.375 13.484375 17.363281 13.457031 C 17.347656 13.425781 17.324219 13.378906 17.308594 13.34375 C 17.289062 13.3125 17.277344 13.265625 17.277344 13.242188 C 17.277344 13.21875 17.265625 13.183594 17.246094 13.164062 C 17.234375 13.140625 17.21875 13.113281 17.21875 13.097656 C 17.21875 13.082031 17.195312 13.019531 17.164062 12.957031 C 17.132812 12.894531 17.105469 12.824219 17.097656 12.792969 C 17.09375 12.765625 17.078125 12.738281 17.070312 12.734375 C 17.0625 12.726562 17.050781 12.703125 17.050781 12.683594 C 17.050781 12.660156 17.039062 12.621094 17.023438 12.601562 C 17.007812 12.582031 16.996094 12.550781 16.996094 12.535156 C 16.996094 12.515625 16.976562 12.457031 16.949219 12.40625 C 16.921875 12.355469 16.894531 12.308594 16.882812 12.304688 C 16.875 12.296875 16.863281 12.277344 16.863281 12.257812 C 16.863281 12.238281 16.839844 12.171875 16.808594 12.113281 C 16.777344 12.054688 16.753906 11.992188 16.753906 11.984375 C 16.753906 11.96875 16.742188 11.9375 16.726562 11.90625 C 16.714844 11.878906 16.675781 11.800781 16.644531 11.734375 C 16.609375 11.667969 16.585938 11.605469 16.585938 11.59375 C 16.585938 11.585938 16.570312 11.554688 16.550781 11.527344 C 16.53125 11.503906 16.503906 11.445312 16.484375 11.398438 C 16.464844 11.351562 16.441406 11.289062 16.425781 11.257812 C 16.414062 11.230469 16.382812 11.15625 16.355469 11.101562 C 16.332031 11.042969 16.304688 10.976562 16.296875 10.949219 C 16.285156 10.925781 16.261719 10.875 16.234375 10.839844 C 16.210938 10.804688 16.183594 10.742188 16.171875 10.707031 C 16.160156 10.671875 16.144531 10.632812 16.136719 10.625 C 16.125 10.613281 16.117188 10.585938 16.117188 10.5625 C 16.117188 10.539062 16.105469 10.507812 16.089844 10.492188 C 16.074219 10.476562 16.0625 10.457031 16.0625 10.445312 C 16.0625 10.4375 16.046875 10.394531 16.023438 10.359375 C 16.003906 10.320312 15.988281 10.277344 15.988281 10.265625 C 15.988281 10.253906 15.980469 10.242188 15.976562 10.242188 C 15.964844 10.242188 15.941406 10.203125 15.917969 10.152344 C 15.894531 10.101562 15.851562 10.007812 15.820312 9.933594 C 15.789062 9.859375 15.75 9.777344 15.738281 9.746094 C 15.722656 9.71875 15.671875 9.601562 15.621094 9.496094 C 15.566406 9.386719 15.503906 9.242188 15.476562 9.167969 C 15.449219 9.09375 15.414062 9.011719 15.398438 8.980469 C 15.386719 8.953125 15.371094 8.898438 15.363281 8.867188 C 15.359375 8.832031 15.339844 8.800781 15.324219 8.792969 C 15.308594 8.789062 15.296875 8.769531 15.296875 8.753906 C 15.296875 8.734375 15.285156 8.703125 15.269531 8.683594 C 15.253906 8.664062 15.242188 8.628906 15.242188 8.609375 C 15.242188 8.585938 15.230469 8.554688 15.214844 8.535156 C 15.199219 8.511719 15.1875 8.480469 15.183594 8.457031 C 15.183594 8.4375 15.175781 8.40625 15.15625 8.382812 C 15.140625 8.363281 15.128906 8.332031 15.128906 8.316406 C 15.128906 8.296875 15.117188 8.257812 15.101562 8.230469 C 15.089844 8.203125 15.054688 8.128906 15.035156 8.066406 C 15.011719 8.003906 14.980469 7.941406 14.96875 7.925781 C 14.953125 7.910156 14.941406 7.878906 14.941406 7.859375 C 14.941406 7.832031 14.929688 7.792969 14.917969 7.765625 C 14.902344 7.734375 14.882812 7.683594 14.871094 7.648438 C 14.855469 7.613281 14.839844 7.550781 14.828125 7.515625 C 14.820312 7.480469 14.804688 7.441406 14.792969 7.433594 C 14.78125 7.421875 14.773438 7.394531 14.773438 7.371094 C 14.773438 7.347656 14.761719 7.308594 14.75 7.277344 C 14.734375 7.25 14.691406 7.128906 14.65625 7.011719 C 14.617188 6.894531 14.589844 6.777344 14.589844 6.757812 C 14.589844 6.730469 14.578125 6.710938 14.570312 6.703125 C 14.558594 6.699219 14.546875 6.65625 14.542969 6.609375 C 14.535156 6.5625 14.523438 6.527344 14.511719 6.527344 C 14.503906 6.527344 14.488281 6.476562 14.484375 6.421875 C 14.476562 6.359375 14.460938 6.296875 14.445312 6.273438 C 14.429688 6.253906 14.421875 6.210938 14.421875 6.183594 C 14.417969 6.152344 14.40625 6.109375 14.390625 6.089844 C 14.375 6.066406 14.363281 6.015625 14.363281 5.976562 C 14.363281 5.933594 14.351562 5.886719 14.335938 5.863281 C 14.320312 5.84375 14.308594 5.796875 14.308594 5.761719 C 14.308594 5.726562 14.296875 5.675781 14.28125 5.648438 C 14.265625 5.625 14.253906 5.554688 14.253906 5.5 C 14.253906 5.445312 14.238281 5.378906 14.222656 5.351562 C 14.210938 5.324219 14.199219 5.253906 14.195312 5.183594 C 14.195312 5.109375 14.1875 5.046875 14.167969 5.023438 C 14.15625 5.003906 14.136719 4.929688 14.128906 4.855469 C 14.125 4.785156 14.109375 4.71875 14.101562 4.707031 C 14.09375 4.695312 14.082031 4.621094 14.074219 4.539062 C 14.066406 4.457031 14.046875 4.367188 14.035156 4.339844 C 14.019531 4.304688 14.007812 4.222656 14.007812 4.109375 C 14.007812 4.011719 14 3.910156 13.988281 3.882812 C 13.972656 3.851562 13.957031 3.691406 13.949219 3.523438 C 13.941406 3.351562 13.933594 3.128906 13.933594 3.027344 C 13.929688 2.925781 13.9375 2.714844 13.949219 2.5625 C 13.957031 2.40625 13.972656 2.269531 13.980469 2.253906 C 13.992188 2.238281 14.003906 2.140625 14.011719 2.039062 C 14.019531 1.933594 14.039062 1.796875 14.058594 1.730469 C 14.078125 1.664062 14.097656 1.601562 14.105469 1.589844 C 14.113281 1.578125 14.125 1.539062 14.128906 1.496094 C 14.140625 1.457031 14.15625 1.40625 14.167969 1.386719 C 14.183594 1.363281 14.195312 1.332031 14.195312 1.316406 C 14.195312 1.296875 14.210938 1.25 14.226562 1.214844 C 14.246094 1.175781 14.273438 1.109375 14.292969 1.066406 C 14.3125 1.027344 14.335938 0.976562 14.351562 0.957031 C 14.363281 0.933594 14.386719 0.898438 14.40625 0.871094 C 14.425781 0.84375 14.441406 0.8125 14.4375 0.800781 C 14.4375 0.789062 14.464844 0.742188 14.496094 0.699219 C 14.527344 0.65625 14.550781 0.613281 14.550781 0.605469 C 14.550781 0.597656 14.574219 0.558594 14.601562 0.523438 C 14.628906 0.484375 14.675781 0.429688 14.699219 0.40625 C 14.726562 0.378906 14.78125 0.332031 14.820312 0.296875 C 14.863281 0.265625 14.941406 0.214844 14.996094 0.183594 C 15.050781 0.152344 15.113281 0.125 15.136719 0.125 C 15.160156 0.125 15.191406 0.113281 15.210938 0.0976562 C 15.222656 0.0820312 15.265625 0.0703125 15.304688 0.0703125 C 15.34375 0.0703125 15.390625 0.0585938 15.414062 0.046875 C 15.4375 0.0351562 15.492188 0.0195312 15.539062 0.0117188 C 15.585938 0.00390625 15.726562 0 15.851562 0.00390625 Z M 16.082031 2.277344 C 16.042969 2.285156 15.964844 2.316406 15.902344 2.347656 C 15.84375 2.378906 15.75 2.445312 15.703125 2.492188 C 15.652344 2.539062 15.589844 2.625 15.566406 2.679688 C 15.542969 2.730469 15.523438 2.800781 15.523438 2.828125 C 15.527344 2.855469 15.519531 2.890625 15.507812 2.902344 C 15.488281 2.917969 15.484375 3.058594 15.484375 3.433594 C 15.484375 3.742188 15.492188 3.949219 15.503906 3.960938 C 15.511719 3.972656 15.523438 4.078125 15.53125 4.195312 C 15.539062 4.3125 15.554688 4.417969 15.558594 4.425781 C 15.570312 4.4375 15.582031 4.515625 15.589844 4.605469 C 15.597656 4.691406 15.609375 4.769531 15.617188 4.78125 C 15.625 4.792969 15.640625 4.871094 15.644531 4.957031 C 15.65625 5.054688 15.671875 5.117188 15.683594 5.121094 C 15.699219 5.125 15.707031 5.167969 15.707031 5.246094 C 15.707031 5.316406 15.71875 5.375 15.734375 5.398438 C 15.75 5.417969 15.765625 5.472656 15.765625 5.519531 C 15.765625 5.566406 15.777344 5.625 15.792969 5.648438 C 15.808594 5.675781 15.816406 5.726562 15.816406 5.761719 C 15.820312 5.796875 15.832031 5.84375 15.847656 5.863281 C 15.863281 5.886719 15.875 5.933594 15.875 5.976562 C 15.875 6.015625 15.886719 6.066406 15.902344 6.089844 C 15.914062 6.109375 15.933594 6.15625 15.9375 6.191406 C 15.945312 6.226562 15.960938 6.28125 15.976562 6.3125 C 15.992188 6.34375 16.007812 6.390625 16.007812 6.414062 C 16.007812 6.441406 16.019531 6.476562 16.03125 6.5 C 16.046875 6.519531 16.0625 6.5625 16.066406 6.59375 C 16.070312 6.621094 16.085938 6.675781 16.097656 6.703125 C 16.105469 6.734375 16.128906 6.8125 16.148438 6.871094 C 16.164062 6.933594 16.1875 7.011719 16.203125 7.046875 C 16.21875 7.078125 16.230469 7.109375 16.230469 7.121094 C 16.230469 7.128906 16.253906 7.183594 16.285156 7.246094 C 16.316406 7.308594 16.34375 7.375 16.34375 7.394531 C 16.34375 7.414062 16.367188 7.484375 16.398438 7.542969 C 16.429688 7.605469 16.453125 7.679688 16.453125 7.707031 C 16.453125 7.738281 16.46875 7.773438 16.484375 7.785156 C 16.496094 7.800781 16.511719 7.824219 16.511719 7.839844 C 16.511719 7.851562 16.523438 7.878906 16.539062 7.898438 C 16.554688 7.917969 16.566406 7.953125 16.566406 7.972656 C 16.566406 7.992188 16.578125 8.03125 16.597656 8.058594 C 16.617188 8.082031 16.644531 8.132812 16.660156 8.167969 C 16.679688 8.203125 16.71875 8.289062 16.75 8.363281 C 16.78125 8.429688 16.808594 8.5 16.808594 8.515625 C 16.808594 8.53125 16.820312 8.566406 16.835938 8.59375 C 16.851562 8.625 16.902344 8.722656 16.945312 8.820312 C 16.992188 8.914062 17.03125 9.003906 17.03125 9.023438 C 17.03125 9.042969 17.058594 9.105469 17.089844 9.167969 C 17.117188 9.230469 17.144531 9.292969 17.144531 9.304688 C 17.144531 9.316406 17.160156 9.339844 17.179688 9.359375 C 17.199219 9.378906 17.226562 9.429688 17.246094 9.476562 C 17.265625 9.523438 17.289062 9.585938 17.300781 9.617188 C 17.316406 9.644531 17.351562 9.726562 17.382812 9.792969 C 17.414062 9.859375 17.492188 10.027344 17.5625 10.167969 C 17.628906 10.304688 17.6875 10.429688 17.6875 10.441406 C 17.6875 10.453125 17.707031 10.507812 17.734375 10.558594 C 17.757812 10.609375 17.78125 10.664062 17.78125 10.675781 C 17.777344 10.6875 17.792969 10.71875 17.8125 10.746094 C 17.832031 10.769531 17.855469 10.8125 17.863281 10.839844 C 17.871094 10.863281 17.882812 10.894531 17.890625 10.902344 C 17.898438 10.914062 17.910156 10.949219 17.917969 10.984375 C 17.921875 11.015625 17.9375 11.042969 17.949219 11.042969 C 17.957031 11.042969 17.964844 11.058594 17.964844 11.078125 C 17.964844 11.09375 17.976562 11.125 17.992188 11.148438 C 18.003906 11.167969 18.023438 11.207031 18.03125 11.234375 C 18.035156 11.265625 18.050781 11.285156 18.058594 11.285156 C 18.070312 11.285156 18.078125 11.300781 18.078125 11.316406 C 18.078125 11.328125 18.089844 11.363281 18.105469 11.394531 C 18.121094 11.421875 18.160156 11.507812 18.199219 11.585938 C 18.234375 11.660156 18.265625 11.742188 18.265625 11.769531 C 18.265625 11.789062 18.292969 11.859375 18.320312 11.917969 C 18.351562 11.976562 18.375 12.039062 18.375 12.058594 C 18.375 12.074219 18.40625 12.144531 18.441406 12.214844 C 18.476562 12.285156 18.507812 12.351562 18.507812 12.367188 C 18.507812 12.375 18.527344 12.429688 18.554688 12.480469 C 18.582031 12.535156 18.601562 12.589844 18.601562 12.613281 C 18.601562 12.632812 18.617188 12.679688 18.636719 12.71875 C 18.660156 12.757812 18.675781 12.804688 18.675781 12.824219 C 18.675781 12.839844 18.679688 12.859375 18.691406 12.863281 C 18.699219 12.867188 18.710938 12.902344 18.714844 12.941406 C 18.722656 12.980469 18.742188 13.027344 18.757812 13.039062 C 18.777344 13.054688 18.789062 13.082031 18.789062 13.09375 C 18.789062 13.105469 18.796875 13.144531 18.8125 13.175781 C 18.828125 13.207031 18.847656 13.257812 18.859375 13.289062 C 18.875 13.320312 18.894531 13.339844 18.917969 13.339844 C 18.9375 13.339844 18.996094 13.304688 19.042969 13.261719 C 19.089844 13.214844 19.183594 13.117188 19.253906 13.039062 C 19.320312 12.960938 19.410156 12.855469 19.449219 12.804688 C 19.492188 12.753906 19.570312 12.671875 19.625 12.621094 C 19.675781 12.570312 19.722656 12.523438 19.722656 12.515625 C 19.722656 12.503906 19.757812 12.453125 19.800781 12.394531 C 19.847656 12.332031 19.917969 12.253906 19.964844 12.21875 C 20.007812 12.183594 20.070312 12.117188 20.097656 12.070312 C 20.128906 12.023438 20.257812 11.875 20.390625 11.738281 C 20.519531 11.601562 20.636719 11.464844 20.648438 11.4375 C 20.660156 11.410156 20.722656 11.339844 20.785156 11.277344 C 20.851562 11.214844 20.917969 11.140625 20.9375 11.109375 C 20.957031 11.078125 21.027344 10.992188 21.097656 10.914062 C 21.167969 10.839844 21.242188 10.746094 21.269531 10.710938 C 21.292969 10.671875 21.359375 10.59375 21.417969 10.53125 C 21.476562 10.46875 21.546875 10.386719 21.578125 10.34375 C 21.609375 10.304688 21.6875 10.210938 21.75 10.136719 C 21.816406 10.066406 21.867188 9.996094 21.867188 9.984375 C 21.867188 9.972656 21.878906 9.957031 21.890625 9.949219 C 21.90625 9.9375 21.960938 9.875 22.015625 9.804688 C 22.074219 9.734375 22.167969 9.625 22.226562 9.558594 C 22.285156 9.492188 22.332031 9.425781 22.332031 9.417969 C 22.332031 9.402344 22.378906 9.34375 22.4375 9.289062 C 22.496094 9.234375 22.566406 9.144531 22.597656 9.09375 C 22.625 9.042969 22.703125 8.941406 22.761719 8.871094 C 22.824219 8.796875 22.914062 8.679688 22.964844 8.609375 C 23.011719 8.539062 23.070312 8.46875 23.089844 8.453125 C 23.113281 8.433594 23.148438 8.386719 23.167969 8.347656 C 23.191406 8.304688 23.226562 8.253906 23.25 8.234375 C 23.269531 8.214844 23.324219 8.152344 23.363281 8.09375 C 23.402344 8.039062 23.464844 7.957031 23.496094 7.914062 C 23.527344 7.871094 23.589844 7.789062 23.632812 7.730469 C 23.671875 7.667969 23.738281 7.585938 23.777344 7.539062 C 23.8125 7.496094 23.84375 7.449219 23.84375 7.441406 C 23.84375 7.433594 23.882812 7.371094 23.929688 7.308594 C 23.976562 7.242188 24.023438 7.175781 24.039062 7.160156 C 24.050781 7.148438 24.082031 7.101562 24.105469 7.058594 C 24.132812 7.019531 24.175781 6.960938 24.203125 6.933594 C 24.230469 6.902344 24.257812 6.867188 24.257812 6.851562 C 24.257812 6.832031 24.28125 6.789062 24.3125 6.757812 C 24.34375 6.722656 24.367188 6.683594 24.367188 6.671875 C 24.367188 6.660156 24.386719 6.632812 24.40625 6.617188 C 24.425781 6.597656 24.441406 6.566406 24.441406 6.550781 C 24.441406 6.53125 24.460938 6.5 24.480469 6.480469 C 24.503906 6.460938 24.523438 6.425781 24.53125 6.40625 C 24.539062 6.386719 24.578125 6.316406 24.621094 6.257812 C 24.660156 6.195312 24.753906 6.03125 24.824219 5.890625 C 24.894531 5.753906 24.96875 5.621094 24.984375 5.59375 C 25.007812 5.566406 25.023438 5.535156 25.023438 5.519531 C 25.023438 5.503906 25.035156 5.472656 25.050781 5.453125 C 25.066406 5.433594 25.078125 5.402344 25.078125 5.382812 C 25.078125 5.367188 25.085938 5.351562 25.097656 5.351562 C 25.105469 5.351562 25.113281 5.339844 25.113281 5.328125 C 25.113281 5.316406 25.128906 5.273438 25.148438 5.238281 C 25.167969 5.203125 25.199219 5.125 25.21875 5.0625 C 25.234375 5 25.273438 4.90625 25.304688 4.851562 C 25.332031 4.796875 25.359375 4.734375 25.359375 4.710938 C 25.359375 4.6875 25.363281 4.664062 25.375 4.652344 C 25.386719 4.640625 25.402344 4.601562 25.410156 4.566406 C 25.421875 4.53125 25.441406 4.472656 25.453125 4.4375 C 25.464844 4.402344 25.484375 4.335938 25.5 4.296875 C 25.519531 4.253906 25.539062 4.199219 25.554688 4.171875 C 25.570312 4.140625 25.582031 4.101562 25.582031 4.078125 C 25.578125 4.054688 25.59375 4.023438 25.609375 4.007812 C 25.625 3.992188 25.640625 3.949219 25.648438 3.910156 C 25.652344 3.871094 25.664062 3.835938 25.675781 3.828125 C 25.683594 3.824219 25.699219 3.777344 25.703125 3.722656 C 25.710938 3.667969 25.730469 3.609375 25.742188 3.585938 C 25.757812 3.566406 25.769531 3.515625 25.769531 3.472656 C 25.769531 3.425781 25.773438 3.386719 25.78125 3.382812 C 25.789062 3.378906 25.804688 3.328125 25.8125 3.269531 C 25.820312 3.207031 25.835938 3.152344 25.84375 3.140625 C 25.855469 3.128906 25.863281 2.988281 25.867188 2.824219 C 25.871094 2.582031 25.863281 2.527344 25.84375 2.515625 C 25.828125 2.503906 25.761719 2.5 25.695312 2.507812 C 25.625 2.515625 25.550781 2.53125 25.523438 2.542969 C 25.492188 2.558594 25.453125 2.570312 25.433594 2.570312 C 25.410156 2.570312 25.363281 2.582031 25.324219 2.601562 C 25.285156 2.613281 25.226562 2.640625 25.191406 2.65625 C 25.152344 2.671875 25.101562 2.695312 25.074219 2.710938 C 25.042969 2.726562 25.007812 2.738281 24.988281 2.738281 C 24.972656 2.738281 24.917969 2.761719 24.871094 2.792969 C 24.824219 2.820312 24.71875 2.875 24.628906 2.914062 C 24.542969 2.953125 24.441406 3.003906 24.40625 3.027344 C 24.371094 3.046875 24.320312 3.074219 24.292969 3.089844 C 24.265625 3.101562 24.222656 3.128906 24.191406 3.148438 C 24.160156 3.167969 24.121094 3.191406 24.105469 3.195312 C 24.09375 3.203125 24.023438 3.246094 23.957031 3.289062 C 23.890625 3.335938 23.824219 3.371094 23.808594 3.371094 C 23.792969 3.371094 23.75 3.398438 23.714844 3.429688 C 23.679688 3.460938 23.632812 3.496094 23.609375 3.507812 C 23.589844 3.523438 23.503906 3.570312 23.425781 3.617188 C 23.34375 3.660156 23.25 3.730469 23.210938 3.769531 C 23.175781 3.808594 23.128906 3.839844 23.113281 3.839844 C 23.09375 3.839844 23.019531 3.894531 22.945312 3.960938 C 22.871094 4.027344 22.800781 4.082031 22.792969 4.082031 C 22.78125 4.082031 22.71875 4.132812 22.652344 4.199219 C 22.582031 4.261719 22.503906 4.328125 22.472656 4.347656 C 22.441406 4.367188 22.269531 4.53125 22.085938 4.710938 C 21.902344 4.894531 21.734375 5.074219 21.710938 5.109375 C 21.691406 5.144531 21.625 5.226562 21.566406 5.292969 C 21.503906 5.355469 21.457031 5.417969 21.457031 5.429688 C 21.457031 5.441406 21.421875 5.488281 21.378906 5.527344 C 21.339844 5.570312 21.292969 5.625 21.277344 5.648438 C 21.265625 5.675781 21.222656 5.734375 21.179688 5.785156 C 21.136719 5.835938 21.101562 5.886719 21.101562 5.898438 C 21.101562 5.910156 21.058594 5.976562 21.003906 6.050781 C 20.949219 6.125 20.878906 6.222656 20.847656 6.273438 C 20.816406 6.320312 20.773438 6.394531 20.746094 6.433594 C 20.722656 6.472656 20.660156 6.5625 20.613281 6.632812 C 20.566406 6.703125 20.5 6.816406 20.464844 6.890625 C 20.429688 6.964844 20.359375 7.078125 20.3125 7.152344 C 20.265625 7.226562 20.226562 7.292969 20.226562 7.308594 C 20.226562 7.320312 20.195312 7.386719 20.160156 7.457031 C 20.125 7.527344 20.0625 7.613281 20.023438 7.652344 C 19.984375 7.6875 19.921875 7.730469 19.878906 7.746094 C 19.839844 7.765625 19.773438 7.78125 19.738281 7.78125 C 19.703125 7.78125 19.667969 7.773438 19.660156 7.765625 C 19.648438 7.757812 19.601562 7.734375 19.554688 7.71875 C 19.507812 7.699219 19.457031 7.683594 19.441406 7.683594 C 19.425781 7.683594 19.378906 7.667969 19.339844 7.648438 C 19.296875 7.625 19.234375 7.582031 19.203125 7.554688 C 19.171875 7.523438 19.132812 7.496094 19.121094 7.496094 C 19.105469 7.5 19.046875 7.445312 18.984375 7.382812 C 18.921875 7.316406 18.851562 7.222656 18.828125 7.171875 C 18.800781 7.117188 18.773438 7.066406 18.757812 7.050781 C 18.75 7.035156 18.71875 6.972656 18.699219 6.914062 C 18.675781 6.855469 18.65625 6.789062 18.65625 6.765625 C 18.65625 6.742188 18.648438 6.714844 18.640625 6.703125 C 18.628906 6.695312 18.613281 6.597656 18.601562 6.488281 C 18.59375 6.382812 18.578125 6.246094 18.566406 6.191406 C 18.554688 6.136719 18.546875 6.042969 18.546875 5.984375 C 18.546875 5.929688 18.539062 5.875 18.527344 5.863281 C 18.515625 5.855469 18.503906 5.765625 18.496094 5.667969 C 18.488281 5.570312 18.472656 5.46875 18.457031 5.445312 C 18.445312 5.417969 18.433594 5.347656 18.433594 5.285156 C 18.433594 5.214844 18.421875 5.160156 18.40625 5.136719 C 18.390625 5.113281 18.378906 5.058594 18.375 4.996094 C 18.375 4.933594 18.367188 4.878906 18.347656 4.855469 C 18.332031 4.835938 18.324219 4.777344 18.320312 4.726562 C 18.320312 4.671875 18.308594 4.617188 18.292969 4.59375 C 18.277344 4.574219 18.265625 4.515625 18.265625 4.464844 C 18.265625 4.414062 18.253906 4.355469 18.238281 4.332031 C 18.222656 4.3125 18.210938 4.269531 18.207031 4.242188 C 18.207031 4.210938 18.199219 4.167969 18.179688 4.148438 C 18.164062 4.125 18.15625 4.09375 18.152344 4.074219 C 18.152344 4.050781 18.136719 4.003906 18.117188 3.964844 C 18.09375 3.925781 18.078125 3.882812 18.078125 3.867188 C 18.078125 3.851562 18.066406 3.816406 18.050781 3.789062 C 18.039062 3.757812 18.015625 3.707031 18.003906 3.671875 C 17.992188 3.636719 17.960938 3.558594 17.941406 3.496094 C 17.917969 3.4375 17.894531 3.390625 17.886719 3.390625 C 17.878906 3.390625 17.871094 3.375 17.871094 3.355469 C 17.871094 3.332031 17.859375 3.300781 17.835938 3.285156 C 17.820312 3.265625 17.796875 3.234375 17.789062 3.214844 C 17.785156 3.195312 17.761719 3.15625 17.738281 3.128906 C 17.710938 3.105469 17.6875 3.0625 17.675781 3.035156 C 17.667969 3.011719 17.546875 2.875 17.410156 2.734375 C 17.253906 2.574219 17.121094 2.457031 17.070312 2.433594 C 17.027344 2.410156 16.988281 2.382812 16.984375 2.371094 C 16.980469 2.355469 16.945312 2.339844 16.90625 2.335938 C 16.867188 2.328125 16.808594 2.3125 16.777344 2.296875 C 16.742188 2.28125 16.683594 2.273438 16.640625 2.273438 C 16.601562 2.273438 16.5625 2.265625 16.558594 2.253906 C 16.550781 2.242188 16.46875 2.234375 16.359375 2.234375 C 16.261719 2.234375 16.171875 2.242188 16.164062 2.25 C 16.15625 2.257812 16.117188 2.273438 16.082031 2.277344 Z M 2.167969 12.847656 C 2.296875 12.851562 2.402344 12.867188 2.417969 12.878906 C 2.433594 12.890625 2.5 12.90625 2.566406 12.914062 C 2.632812 12.917969 2.71875 12.933594 2.753906 12.949219 C 2.789062 12.960938 2.855469 12.984375 2.894531 13 C 2.9375 13.015625 2.996094 13.039062 3.023438 13.050781 C 3.058594 13.0625 3.128906 13.097656 3.183594 13.125 C 3.238281 13.148438 3.316406 13.191406 3.351562 13.21875 C 3.386719 13.246094 3.421875 13.265625 3.429688 13.265625 C 3.441406 13.265625 3.464844 13.28125 3.488281 13.304688 C 3.511719 13.324219 3.578125 13.367188 3.640625 13.394531 C 3.703125 13.425781 3.765625 13.460938 3.78125 13.480469 C 3.796875 13.496094 3.820312 13.507812 3.832031 13.507812 C 3.84375 13.507812 3.882812 13.527344 3.917969 13.554688 C 3.949219 13.578125 3.988281 13.597656 3.996094 13.601562 C 4.007812 13.601562 4.089844 13.667969 4.183594 13.75 C 4.277344 13.832031 4.410156 13.957031 4.488281 14.027344 C 4.5625 14.09375 4.621094 14.164062 4.621094 14.175781 C 4.621094 14.1875 4.664062 14.242188 4.714844 14.296875 C 4.769531 14.347656 4.863281 14.460938 4.921875 14.542969 C 4.984375 14.625 5.03125 14.703125 5.03125 14.710938 C 5.03125 14.722656 5.046875 14.746094 5.070312 14.765625 C 5.09375 14.789062 5.125 14.835938 5.144531 14.871094 C 5.164062 14.90625 5.195312 14.953125 5.214844 14.972656 C 5.238281 14.992188 5.257812 15.027344 5.257812 15.046875 C 5.257812 15.066406 5.273438 15.113281 5.296875 15.148438 C 5.320312 15.1875 5.339844 15.21875 5.347656 15.226562 C 5.355469 15.230469 5.371094 15.261719 5.386719 15.289062 C 5.402344 15.320312 5.433594 15.382812 5.460938 15.429688 C 5.484375 15.476562 5.511719 15.535156 5.527344 15.566406 C 5.542969 15.59375 5.554688 15.636719 5.554688 15.660156 C 5.554688 15.683594 5.566406 15.71875 5.582031 15.738281 C 5.597656 15.757812 5.609375 15.796875 5.609375 15.820312 C 5.609375 15.847656 5.628906 15.894531 5.648438 15.925781 C 5.667969 15.957031 5.683594 15.992188 5.683594 16.007812 C 5.683594 16.023438 5.695312 16.046875 5.707031 16.058594 C 5.71875 16.070312 5.738281 16.105469 5.742188 16.132812 C 5.75 16.160156 5.765625 16.214844 5.777344 16.25 C 5.792969 16.285156 5.8125 16.339844 5.828125 16.367188 C 5.839844 16.398438 5.851562 16.441406 5.851562 16.464844 C 5.851562 16.492188 5.863281 16.53125 5.875 16.554688 C 5.886719 16.578125 5.902344 16.632812 5.910156 16.679688 C 5.917969 16.726562 5.933594 16.800781 5.945312 16.847656 C 5.960938 16.894531 5.976562 16.945312 5.984375 16.960938 C 5.996094 16.976562 6.011719 17.011719 6.019531 17.039062 C 6.035156 17.078125 6.050781 17.089844 6.082031 17.085938 C 6.109375 17.082031 6.136719 17.054688 6.167969 17.007812 C 6.1875 16.964844 6.246094 16.882812 6.292969 16.820312 C 6.339844 16.757812 6.390625 16.683594 6.410156 16.65625 C 6.425781 16.625 6.46875 16.566406 6.5 16.523438 C 6.53125 16.484375 6.621094 16.363281 6.699219 16.261719 C 6.777344 16.15625 6.871094 16.039062 6.910156 16 C 6.949219 15.957031 7.019531 15.878906 7.070312 15.820312 C 7.117188 15.765625 7.207031 15.660156 7.269531 15.589844 C 7.332031 15.519531 7.460938 15.386719 7.554688 15.300781 C 7.648438 15.210938 7.753906 15.125 7.78125 15.101562 C 7.816406 15.082031 7.894531 15.011719 7.960938 14.949219 C 8.027344 14.886719 8.09375 14.832031 8.101562 14.832031 C 8.113281 14.835938 8.167969 14.792969 8.222656 14.742188 C 8.28125 14.6875 8.335938 14.648438 8.34375 14.648438 C 8.355469 14.648438 8.378906 14.628906 8.402344 14.605469 C 8.421875 14.585938 8.484375 14.535156 8.539062 14.5 C 8.597656 14.460938 8.699219 14.390625 8.769531 14.34375 C 8.839844 14.292969 8.90625 14.253906 8.914062 14.253906 C 8.921875 14.253906 8.960938 14.230469 8.996094 14.199219 C 9.027344 14.167969 9.070312 14.144531 9.085938 14.140625 C 9.105469 14.140625 9.140625 14.117188 9.171875 14.089844 C 9.199219 14.058594 9.269531 14.007812 9.324219 13.980469 C 9.378906 13.953125 9.441406 13.921875 9.457031 13.910156 C 9.46875 13.894531 9.53125 13.863281 9.585938 13.835938 C 9.640625 13.804688 9.730469 13.753906 9.78125 13.722656 C 9.835938 13.6875 9.941406 13.632812 10.023438 13.601562 C 10.105469 13.566406 10.183594 13.535156 10.191406 13.527344 C 10.203125 13.519531 10.234375 13.507812 10.261719 13.5 C 10.292969 13.496094 10.3125 13.480469 10.3125 13.46875 C 10.3125 13.460938 10.351562 13.433594 10.402344 13.414062 C 10.453125 13.390625 10.511719 13.363281 10.542969 13.347656 C 10.570312 13.335938 10.613281 13.320312 10.636719 13.320312 C 10.660156 13.320312 10.695312 13.308594 10.714844 13.292969 C 10.734375 13.277344 10.769531 13.265625 10.789062 13.265625 C 10.808594 13.265625 10.84375 13.253906 10.863281 13.238281 C 10.886719 13.222656 10.921875 13.207031 10.949219 13.207031 C 10.972656 13.207031 11.019531 13.195312 11.050781 13.179688 C 11.082031 13.164062 11.167969 13.144531 11.238281 13.140625 C 11.308594 13.132812 11.390625 13.117188 11.421875 13.105469 C 11.449219 13.089844 11.527344 13.078125 11.597656 13.078125 C 11.667969 13.078125 11.757812 13.085938 11.796875 13.097656 C 11.839844 13.109375 11.910156 13.125 11.957031 13.136719 C 12.003906 13.144531 12.0625 13.167969 12.09375 13.179688 C 12.121094 13.195312 12.15625 13.207031 12.171875 13.207031 C 12.1875 13.207031 12.238281 13.234375 12.289062 13.265625 C 12.335938 13.292969 12.386719 13.320312 12.402344 13.320312 C 12.410156 13.320312 12.4375 13.339844 12.457031 13.363281 C 12.472656 13.386719 12.507812 13.417969 12.535156 13.421875 C 12.5625 13.433594 12.597656 13.457031 12.613281 13.472656 C 12.632812 13.492188 12.664062 13.507812 12.683594 13.507812 C 12.703125 13.507812 12.722656 13.515625 12.722656 13.527344 C 12.722656 13.539062 12.742188 13.550781 12.773438 13.554688 C 12.804688 13.5625 12.894531 13.636719 12.996094 13.738281 C 13.089844 13.832031 13.167969 13.921875 13.167969 13.933594 C 13.167969 13.945312 13.195312 13.984375 13.226562 14.015625 C 13.253906 14.050781 13.28125 14.089844 13.28125 14.101562 C 13.28125 14.113281 13.308594 14.171875 13.335938 14.230469 C 13.371094 14.289062 13.394531 14.347656 13.394531 14.363281 C 13.394531 14.375 13.414062 14.429688 13.441406 14.488281 C 13.464844 14.542969 13.496094 14.59375 13.503906 14.597656 C 13.515625 14.605469 13.523438 14.632812 13.523438 14.660156 C 13.523438 14.6875 13.535156 14.726562 13.550781 14.75 C 13.566406 14.769531 13.582031 14.808594 13.582031 14.84375 C 13.582031 14.875 13.59375 14.917969 13.609375 14.945312 C 13.621094 14.972656 13.632812 15.042969 13.632812 15.113281 C 13.636719 15.191406 13.644531 15.246094 13.664062 15.269531 C 13.683594 15.296875 13.691406 15.355469 13.691406 15.476562 C 13.691406 15.597656 13.699219 15.65625 13.71875 15.683594 C 13.738281 15.710938 13.75 15.773438 13.75 15.914062 C 13.75 16.050781 13.742188 16.132812 13.71875 16.183594 C 13.699219 16.230469 13.691406 16.320312 13.691406 16.488281 C 13.691406 16.667969 13.683594 16.738281 13.664062 16.765625 C 13.644531 16.785156 13.636719 16.84375 13.636719 16.914062 C 13.632812 16.984375 13.625 17.039062 13.609375 17.0625 C 13.589844 17.082031 13.582031 17.140625 13.582031 17.191406 C 13.582031 17.238281 13.574219 17.28125 13.5625 17.289062 C 13.550781 17.292969 13.539062 17.339844 13.535156 17.390625 C 13.527344 17.441406 13.511719 17.488281 13.5 17.492188 C 13.488281 17.5 13.472656 17.550781 13.464844 17.613281 C 13.453125 17.675781 13.441406 17.730469 13.429688 17.734375 C 13.421875 17.742188 13.40625 17.78125 13.398438 17.824219 C 13.394531 17.867188 13.375 17.921875 13.363281 17.949219 C 13.347656 17.976562 13.335938 18.007812 13.335938 18.019531 C 13.335938 18.03125 13.324219 18.089844 13.308594 18.140625 C 13.289062 18.195312 13.265625 18.265625 13.25 18.300781 C 13.238281 18.332031 13.226562 18.371094 13.226562 18.378906 C 13.226562 18.390625 13.21875 18.414062 13.207031 18.429688 C 13.199219 18.449219 13.171875 18.5 13.152344 18.542969 C 13.128906 18.585938 13.113281 18.640625 13.113281 18.664062 C 13.113281 18.6875 13.101562 18.722656 13.085938 18.742188 C 13.070312 18.761719 13.058594 18.796875 13.058594 18.8125 C 13.058594 18.832031 13.035156 18.894531 13 18.957031 C 12.972656 19.019531 12.945312 19.085938 12.945312 19.101562 C 12.945312 19.121094 12.933594 19.152344 12.917969 19.171875 C 12.902344 19.191406 12.890625 19.226562 12.890625 19.253906 C 12.890625 19.273438 12.875 19.296875 12.863281 19.304688 C 12.847656 19.308594 12.828125 19.339844 12.824219 19.375 C 12.816406 19.40625 12.796875 19.449219 12.785156 19.472656 C 12.769531 19.492188 12.757812 19.519531 12.757812 19.535156 C 12.757812 19.550781 12.734375 19.613281 12.703125 19.675781 C 12.675781 19.738281 12.636719 19.820312 12.621094 19.859375 C 12.605469 19.898438 12.589844 19.941406 12.589844 19.953125 C 12.589844 19.964844 12.574219 19.988281 12.554688 20.007812 C 12.53125 20.023438 12.515625 20.058594 12.515625 20.078125 C 12.515625 20.097656 12.511719 20.117188 12.503906 20.121094 C 12.492188 20.125 12.472656 20.167969 12.457031 20.21875 C 12.441406 20.269531 12.382812 20.386719 12.328125 20.480469 C 12.273438 20.570312 12.203125 20.695312 12.175781 20.75 C 12.148438 20.804688 12.109375 20.875 12.09375 20.90625 C 12.074219 20.941406 12.046875 20.996094 12.023438 21.039062 C 12.003906 21.078125 11.964844 21.136719 11.9375 21.164062 C 11.90625 21.195312 11.882812 21.234375 11.882812 21.253906 C 11.882812 21.273438 11.875 21.289062 11.863281 21.289062 C 11.855469 21.289062 11.839844 21.308594 11.832031 21.332031 C 11.824219 21.355469 11.796875 21.410156 11.769531 21.449219 C 11.738281 21.492188 11.714844 21.535156 11.710938 21.542969 C 11.710938 21.554688 11.6875 21.589844 11.65625 21.621094 C 11.625 21.65625 11.601562 21.695312 11.601562 21.707031 C 11.601562 21.71875 11.574219 21.757812 11.546875 21.789062 C 11.515625 21.824219 11.488281 21.859375 11.488281 21.871094 C 11.488281 21.878906 11.464844 21.921875 11.433594 21.96875 C 11.402344 22.011719 11.378906 22.050781 11.378906 22.0625 C 11.378906 22.070312 11.355469 22.09375 11.328125 22.117188 C 11.300781 22.140625 11.265625 22.183594 11.253906 22.214844 C 11.242188 22.246094 11.195312 22.308594 11.152344 22.355469 C 11.113281 22.402344 11.078125 22.449219 11.078125 22.457031 C 11.078125 22.46875 11.054688 22.5 11.027344 22.53125 C 11 22.5625 10.953125 22.621094 10.929688 22.664062 C 10.902344 22.703125 10.863281 22.757812 10.84375 22.785156 C 10.816406 22.808594 10.800781 22.84375 10.800781 22.855469 C 10.800781 22.867188 10.757812 22.921875 10.707031 22.976562 C 10.65625 23.027344 10.613281 23.082031 10.613281 23.09375 C 10.613281 23.101562 10.5625 23.171875 10.5 23.242188 C 10.4375 23.3125 10.386719 23.382812 10.386719 23.390625 C 10.386719 23.402344 10.347656 23.445312 10.304688 23.492188 C 10.257812 23.539062 10.214844 23.59375 10.210938 23.613281 C 10.203125 23.636719 10.15625 23.695312 10.105469 23.75 C 10.054688 23.804688 10.015625 23.859375 10.015625 23.871094 C 10.015625 23.882812 9.96875 23.941406 9.914062 23.996094 C 9.855469 24.054688 9.808594 24.109375 9.808594 24.125 C 9.808594 24.136719 9.769531 24.191406 9.71875 24.246094 C 9.671875 24.296875 9.601562 24.390625 9.5625 24.445312 C 9.527344 24.5 9.464844 24.570312 9.425781 24.605469 C 9.386719 24.636719 9.34375 24.691406 9.328125 24.726562 C 9.3125 24.761719 9.257812 24.832031 9.207031 24.882812 C 9.152344 24.9375 9.085938 25.015625 9.058594 25.0625 C 9.03125 25.109375 8.96875 25.183594 8.917969 25.230469 C 8.871094 25.277344 8.804688 25.351562 8.777344 25.398438 C 8.746094 25.445312 8.667969 25.535156 8.601562 25.601562 C 8.539062 25.667969 8.464844 25.753906 8.445312 25.792969 C 8.417969 25.828125 8.335938 25.929688 8.257812 26.011719 C 8.175781 26.09375 8.113281 26.171875 8.113281 26.1875 C 8.113281 26.199219 8.042969 26.277344 7.960938 26.359375 C 7.878906 26.441406 7.8125 26.515625 7.8125 26.527344 C 7.8125 26.539062 7.738281 26.625 7.648438 26.722656 C 7.558594 26.820312 7.445312 26.941406 7.398438 26.992188 C 7.351562 27.046875 7.3125 27.089844 7.308594 27.101562 C 7.308594 27.109375 7.21875 27.207031 7.109375 27.320312 C 6.996094 27.433594 6.898438 27.546875 6.890625 27.566406 C 6.878906 27.589844 6.785156 27.707031 6.679688 27.824219 C 6.574219 27.941406 6.390625 28.136719 6.277344 28.257812 C 6.164062 28.378906 6.042969 28.488281 6.011719 28.503906 C 5.980469 28.515625 5.925781 28.566406 5.886719 28.613281 C 5.84375 28.664062 5.777344 28.71875 5.726562 28.742188 C 5.660156 28.773438 5.609375 28.78125 5.53125 28.777344 C 5.472656 28.777344 5.40625 28.761719 5.382812 28.746094 C 5.359375 28.730469 5.320312 28.71875 5.292969 28.71875 C 5.265625 28.71875 5.210938 28.703125 5.171875 28.683594 C 5.128906 28.660156 5.050781 28.605469 4.996094 28.5625 C 4.9375 28.523438 4.851562 28.449219 4.800781 28.402344 C 4.75 28.355469 4.683594 28.265625 4.652344 28.199219 C 4.621094 28.136719 4.582031 28.058594 4.566406 28.03125 C 4.550781 28.003906 4.535156 27.945312 4.523438 27.898438 C 4.511719 27.828125 4.488281 27.796875 4.367188 27.683594 C 4.292969 27.613281 4.230469 27.539062 4.230469 27.523438 C 4.230469 27.511719 4.199219 27.464844 4.164062 27.421875 C 4.128906 27.382812 4.097656 27.339844 4.097656 27.328125 C 4.101562 27.320312 4.085938 27.296875 4.070312 27.28125 C 4.054688 27.265625 4.039062 27.238281 4.042969 27.222656 C 4.042969 27.203125 4.03125 27.175781 4.019531 27.167969 C 4.007812 27.152344 3.96875 27.089844 3.933594 27.019531 C 3.902344 26.953125 3.875 26.886719 3.875 26.878906 C 3.875 26.863281 3.863281 26.820312 3.84375 26.785156 C 3.828125 26.746094 3.796875 26.679688 3.777344 26.636719 C 3.761719 26.597656 3.742188 26.550781 3.742188 26.535156 C 3.742188 26.519531 3.734375 26.492188 3.714844 26.46875 C 3.699219 26.449219 3.6875 26.417969 3.6875 26.394531 C 3.6875 26.375 3.671875 26.320312 3.652344 26.269531 C 3.636719 26.222656 3.617188 26.175781 3.609375 26.167969 C 3.601562 26.160156 3.59375 26.132812 3.59375 26.113281 C 3.59375 26.085938 3.582031 26.046875 3.570312 26.019531 C 3.554688 25.988281 3.527344 25.925781 3.503906 25.871094 C 3.480469 25.824219 3.445312 25.75 3.433594 25.714844 C 3.417969 25.679688 3.394531 25.625 3.378906 25.597656 C 3.363281 25.570312 3.351562 25.53125 3.351562 25.515625 C 3.351562 25.496094 3.339844 25.464844 3.324219 25.445312 C 3.308594 25.421875 3.296875 25.390625 3.296875 25.375 C 3.296875 25.355469 3.273438 25.292969 3.242188 25.234375 C 3.210938 25.175781 3.15625 25.0625 3.121094 24.984375 C 3.082031 24.902344 3.054688 24.828125 3.054688 24.820312 C 3.054688 24.808594 3.042969 24.777344 3.027344 24.75 C 3.015625 24.71875 2.988281 24.667969 2.972656 24.632812 C 2.957031 24.597656 2.902344 24.484375 2.855469 24.386719 C 2.8125 24.285156 2.773438 24.199219 2.773438 24.191406 C 2.773438 24.1875 2.761719 24.152344 2.742188 24.113281 C 2.726562 24.074219 2.6875 23.988281 2.65625 23.921875 C 2.628906 23.855469 2.59375 23.78125 2.578125 23.753906 C 2.5625 23.726562 2.535156 23.671875 2.511719 23.625 C 2.492188 23.578125 2.460938 23.515625 2.445312 23.488281 C 2.433594 23.460938 2.417969 23.425781 2.417969 23.410156 C 2.417969 23.394531 2.390625 23.332031 2.363281 23.273438 C 2.332031 23.214844 2.308594 23.15625 2.308594 23.144531 C 2.308594 23.132812 2.296875 23.109375 2.285156 23.09375 C 2.269531 23.082031 2.242188 23.035156 2.21875 22.988281 C 2.195312 22.941406 2.144531 22.832031 2.105469 22.738281 C 2.0625 22.644531 2.027344 22.546875 2.019531 22.511719 C 2.011719 22.480469 2 22.453125 1.992188 22.449219 C 1.984375 22.441406 1.949219 22.375 1.910156 22.296875 C 1.871094 22.222656 1.839844 22.148438 1.839844 22.136719 C 1.839844 22.125 1.828125 22.089844 1.816406 22.0625 C 1.800781 22.03125 1.773438 21.976562 1.757812 21.933594 C 1.738281 21.894531 1.714844 21.835938 1.699219 21.808594 C 1.683594 21.78125 1.671875 21.742188 1.671875 21.726562 C 1.675781 21.707031 1.65625 21.671875 1.636719 21.644531 C 1.621094 21.621094 1.589844 21.5625 1.570312 21.515625 C 1.550781 21.46875 1.527344 21.410156 1.511719 21.378906 C 1.496094 21.351562 1.484375 21.3125 1.484375 21.296875 C 1.484375 21.277344 1.472656 21.246094 1.457031 21.226562 C 1.441406 21.203125 1.429688 21.171875 1.429688 21.15625 C 1.429688 21.136719 1.417969 21.101562 1.402344 21.074219 C 1.386719 21.042969 1.363281 20.984375 1.34375 20.9375 C 1.328125 20.890625 1.300781 20.828125 1.289062 20.796875 C 1.273438 20.765625 1.246094 20.679688 1.222656 20.609375 C 1.199219 20.539062 1.171875 20.472656 1.164062 20.460938 C 1.15625 20.449219 1.148438 20.425781 1.148438 20.402344 C 1.148438 20.382812 1.136719 20.34375 1.121094 20.3125 C 1.105469 20.277344 1.09375 20.238281 1.09375 20.21875 C 1.09375 20.195312 1.082031 20.164062 1.066406 20.144531 C 1.054688 20.121094 1.039062 20.070312 1.03125 20.03125 C 1.023438 19.988281 1.003906 19.941406 0.992188 19.929688 C 0.972656 19.914062 0.960938 19.882812 0.960938 19.863281 C 0.960938 19.84375 0.949219 19.800781 0.933594 19.769531 C 0.917969 19.738281 0.90625 19.6875 0.90625 19.65625 C 0.90625 19.625 0.894531 19.585938 0.878906 19.5625 C 0.863281 19.542969 0.851562 19.503906 0.851562 19.472656 C 0.851562 19.4375 0.839844 19.398438 0.824219 19.378906 C 0.808594 19.355469 0.792969 19.308594 0.792969 19.269531 C 0.792969 19.230469 0.777344 19.167969 0.757812 19.132812 C 0.738281 19.09375 0.71875 19.042969 0.71875 19.023438 C 0.71875 19.003906 0.707031 18.960938 0.691406 18.929688 C 0.675781 18.898438 0.664062 18.84375 0.664062 18.808594 C 0.664062 18.773438 0.652344 18.722656 0.636719 18.695312 C 0.621094 18.671875 0.609375 18.625 0.609375 18.59375 C 0.609375 18.5625 0.59375 18.515625 0.582031 18.492188 C 0.566406 18.464844 0.550781 18.394531 0.550781 18.332031 C 0.550781 18.269531 0.539062 18.199219 0.523438 18.171875 C 0.507812 18.148438 0.496094 18.078125 0.496094 18.019531 C 0.496094 17.960938 0.488281 17.894531 0.476562 17.875 C 0.46875 17.855469 0.453125 17.785156 0.449219 17.722656 C 0.441406 17.65625 0.421875 17.574219 0.410156 17.539062 C 0.390625 17.503906 0.375 17.414062 0.371094 17.34375 C 0.367188 17.273438 0.351562 17.195312 0.339844 17.175781 C 0.332031 17.15625 0.316406 17.046875 0.308594 16.933594 C 0.300781 16.820312 0.285156 16.675781 0.273438 16.617188 C 0.265625 16.554688 0.253906 16.40625 0.253906 16.289062 C 0.253906 16.164062 0.246094 16.066406 0.234375 16.054688 C 0.222656 16.042969 0.21875 15.972656 0.222656 15.867188 C 0.226562 15.777344 0.242188 15.570312 0.25 15.417969 C 0.261719 15.261719 0.28125 15.113281 0.289062 15.09375 C 0.300781 15.074219 0.308594 15 0.308594 14.933594 C 0.3125 14.859375 0.320312 14.769531 0.328125 14.730469 C 0.335938 14.6875 0.355469 14.609375 0.371094 14.554688 C 0.382812 14.496094 0.40625 14.433594 0.417969 14.414062 C 0.429688 14.390625 0.449219 14.339844 0.457031 14.292969 C 0.46875 14.246094 0.488281 14.183594 0.496094 14.152344 C 0.503906 14.121094 0.535156 14.042969 0.570312 13.972656 C 0.601562 13.90625 0.660156 13.789062 0.703125 13.714844 C 0.746094 13.636719 0.792969 13.558594 0.804688 13.546875 C 0.820312 13.53125 0.835938 13.5 0.84375 13.480469 C 0.855469 13.460938 0.882812 13.40625 0.914062 13.359375 C 0.945312 13.3125 1.019531 13.230469 1.082031 13.179688 C 1.144531 13.125 1.246094 13.054688 1.308594 13.023438 C 1.371094 12.992188 1.433594 12.964844 1.449219 12.964844 C 1.464844 12.964844 1.492188 12.953125 1.507812 12.9375 C 1.519531 12.921875 1.566406 12.910156 1.601562 12.910156 C 1.640625 12.910156 1.691406 12.902344 1.714844 12.886719 C 1.738281 12.875 1.800781 12.859375 1.847656 12.851562 C 1.902344 12.84375 2.042969 12.84375 2.167969 12.847656 Z M 2.410156 15.113281 C 2.390625 15.113281 2.308594 15.144531 2.230469 15.179688 C 2.148438 15.222656 2.054688 15.285156 1.996094 15.34375 C 1.917969 15.417969 1.890625 15.460938 1.867188 15.542969 C 1.851562 15.597656 1.828125 15.683594 1.8125 15.730469 C 1.792969 15.792969 1.785156 15.925781 1.785156 16.289062 C 1.785156 16.667969 1.792969 16.773438 1.8125 16.8125 C 1.828125 16.84375 1.839844 16.914062 1.839844 17.03125 C 1.839844 17.125 1.847656 17.21875 1.859375 17.242188 C 1.871094 17.261719 1.882812 17.347656 1.886719 17.433594 C 1.894531 17.515625 1.914062 17.617188 1.929688 17.652344 C 1.945312 17.6875 1.960938 17.765625 1.96875 17.828125 C 1.96875 17.890625 1.980469 17.949219 1.992188 17.960938 C 2 17.96875 2.011719 18.039062 2.019531 18.109375 C 2.027344 18.179688 2.039062 18.25 2.046875 18.257812 C 2.054688 18.269531 2.066406 18.324219 2.074219 18.378906 C 2.082031 18.433594 2.09375 18.492188 2.101562 18.5 C 2.109375 18.511719 2.125 18.5625 2.132812 18.621094 C 2.140625 18.675781 2.152344 18.722656 2.164062 18.726562 C 2.171875 18.730469 2.179688 18.78125 2.191406 18.839844 C 2.199219 18.894531 2.210938 18.945312 2.21875 18.949219 C 2.226562 18.953125 2.238281 18.996094 2.246094 19.042969 C 2.253906 19.09375 2.269531 19.140625 2.285156 19.152344 C 2.296875 19.164062 2.308594 19.203125 2.308594 19.238281 C 2.308594 19.273438 2.316406 19.320312 2.335938 19.339844 C 2.347656 19.359375 2.359375 19.398438 2.363281 19.425781 C 2.363281 19.449219 2.375 19.488281 2.390625 19.507812 C 2.40625 19.527344 2.417969 19.570312 2.417969 19.601562 C 2.417969 19.632812 2.429688 19.675781 2.445312 19.695312 C 2.460938 19.714844 2.472656 19.753906 2.476562 19.777344 C 2.476562 19.804688 2.484375 19.84375 2.503906 19.863281 C 2.515625 19.882812 2.53125 19.914062 2.53125 19.933594 C 2.53125 19.949219 2.542969 19.988281 2.554688 20.019531 C 2.570312 20.046875 2.597656 20.105469 2.621094 20.148438 C 2.644531 20.191406 2.660156 20.238281 2.660156 20.25 C 2.660156 20.261719 2.683594 20.320312 2.707031 20.382812 C 2.734375 20.441406 2.753906 20.503906 2.753906 20.527344 C 2.753906 20.546875 2.765625 20.585938 2.777344 20.613281 C 2.792969 20.644531 2.816406 20.695312 2.832031 20.730469 C 2.847656 20.765625 2.894531 20.863281 2.929688 20.945312 C 2.96875 21.027344 3.011719 21.125 3.027344 21.160156 C 3.042969 21.195312 3.066406 21.246094 3.082031 21.277344 C 3.097656 21.304688 3.109375 21.34375 3.109375 21.363281 C 3.109375 21.378906 3.121094 21.410156 3.136719 21.429688 C 3.152344 21.453125 3.164062 21.484375 3.164062 21.5 C 3.164062 21.519531 3.175781 21.542969 3.191406 21.558594 C 3.203125 21.570312 3.246094 21.644531 3.28125 21.726562 C 3.320312 21.804688 3.351562 21.878906 3.351562 21.886719 C 3.351562 21.898438 3.363281 21.929688 3.378906 21.957031 C 3.394531 21.988281 3.445312 22.097656 3.496094 22.207031 C 3.546875 22.3125 3.601562 22.429688 3.613281 22.464844 C 3.625 22.503906 3.660156 22.585938 3.691406 22.652344 C 3.722656 22.71875 3.769531 22.816406 3.792969 22.867188 C 3.816406 22.921875 3.847656 22.972656 3.855469 22.988281 C 3.863281 23.003906 3.898438 23.070312 3.929688 23.136719 C 3.960938 23.207031 3.988281 23.269531 3.988281 23.285156 C 3.988281 23.296875 4.011719 23.355469 4.039062 23.414062 C 4.070312 23.472656 4.117188 23.566406 4.140625 23.625 C 4.167969 23.679688 4.21875 23.792969 4.253906 23.871094 C 4.292969 23.949219 4.324219 24.023438 4.324219 24.035156 C 4.324219 24.046875 4.332031 24.074219 4.347656 24.105469 C 4.363281 24.132812 4.390625 24.191406 4.410156 24.238281 C 4.433594 24.285156 4.476562 24.378906 4.503906 24.445312 C 4.535156 24.511719 4.566406 24.597656 4.574219 24.636719 C 4.578125 24.675781 4.59375 24.707031 4.601562 24.707031 C 4.613281 24.707031 4.621094 24.722656 4.621094 24.738281 C 4.621094 24.757812 4.632812 24.789062 4.648438 24.808594 C 4.664062 24.828125 4.675781 24.859375 4.675781 24.878906 C 4.675781 24.898438 4.699219 24.957031 4.722656 25.015625 C 4.75 25.070312 4.78125 25.121094 4.789062 25.125 C 4.800781 25.132812 4.808594 25.15625 4.808594 25.183594 C 4.808594 25.207031 4.832031 25.277344 4.863281 25.335938 C 4.894531 25.394531 4.917969 25.460938 4.917969 25.480469 C 4.917969 25.5 4.929688 25.535156 4.945312 25.554688 C 4.957031 25.578125 4.976562 25.613281 4.980469 25.640625 C 4.988281 25.664062 5.003906 25.722656 5.019531 25.769531 C 5.039062 25.816406 5.058594 25.871094 5.070312 25.886719 C 5.082031 25.90625 5.085938 25.929688 5.085938 25.9375 C 5.085938 25.949219 5.101562 25.992188 5.125 26.039062 C 5.140625 26.082031 5.164062 26.128906 5.167969 26.148438 C 5.175781 26.164062 5.199219 26.179688 5.222656 26.179688 C 5.25 26.179688 5.320312 26.125 5.417969 26.027344 C 5.503906 25.941406 5.609375 25.828125 5.652344 25.769531 C 5.695312 25.714844 5.796875 25.597656 5.882812 25.507812 C 5.96875 25.421875 6.039062 25.34375 6.039062 25.332031 C 6.039062 25.324219 6.113281 25.234375 6.203125 25.136719 C 6.292969 25.039062 6.398438 24.917969 6.441406 24.863281 C 6.480469 24.816406 6.605469 24.675781 6.71875 24.558594 C 6.832031 24.441406 6.933594 24.320312 6.949219 24.296875 C 6.96875 24.269531 7.027344 24.199219 7.082031 24.136719 C 7.140625 24.074219 7.261719 23.933594 7.355469 23.820312 C 7.449219 23.710938 7.554688 23.574219 7.597656 23.523438 C 7.636719 23.472656 7.714844 23.378906 7.773438 23.316406 C 7.832031 23.253906 7.898438 23.175781 7.921875 23.136719 C 7.941406 23.101562 8.007812 23.027344 8.066406 22.96875 C 8.121094 22.914062 8.167969 22.859375 8.167969 22.847656 C 8.167969 22.839844 8.207031 22.785156 8.257812 22.726562 C 8.304688 22.671875 8.375 22.589844 8.410156 22.542969 C 8.445312 22.496094 8.511719 22.421875 8.554688 22.375 C 8.597656 22.328125 8.632812 22.277344 8.632812 22.265625 C 8.632812 22.253906 8.6875 22.183594 8.753906 22.113281 C 8.824219 22.042969 8.875 21.976562 8.875 21.96875 C 8.875 21.957031 8.917969 21.90625 8.96875 21.847656 C 9.019531 21.789062 9.0625 21.734375 9.0625 21.726562 C 9.0625 21.714844 9.09375 21.675781 9.132812 21.636719 C 9.171875 21.59375 9.234375 21.515625 9.273438 21.457031 C 9.308594 21.402344 9.363281 21.335938 9.386719 21.308594 C 9.414062 21.285156 9.457031 21.230469 9.476562 21.1875 C 9.5 21.148438 9.539062 21.089844 9.566406 21.058594 C 9.59375 21.027344 9.644531 20.964844 9.679688 20.917969 C 9.714844 20.871094 9.757812 20.820312 9.777344 20.800781 C 9.792969 20.78125 9.839844 20.722656 9.878906 20.660156 C 9.917969 20.605469 9.96875 20.527344 9.996094 20.488281 C 10.023438 20.449219 10.066406 20.394531 10.09375 20.363281 C 10.125 20.335938 10.144531 20.300781 10.144531 20.289062 C 10.144531 20.277344 10.175781 20.222656 10.214844 20.175781 C 10.253906 20.125 10.304688 20.0625 10.328125 20.03125 C 10.351562 20 10.382812 19.949219 10.398438 19.917969 C 10.417969 19.886719 10.460938 19.832031 10.492188 19.792969 C 10.527344 19.753906 10.554688 19.707031 10.554688 19.691406 C 10.554688 19.671875 10.582031 19.632812 10.609375 19.601562 C 10.636719 19.574219 10.667969 19.53125 10.679688 19.511719 C 10.695312 19.488281 10.714844 19.449219 10.726562 19.425781 C 10.742188 19.398438 10.773438 19.34375 10.804688 19.304688 C 10.832031 19.261719 10.855469 19.222656 10.855469 19.214844 C 10.855469 19.207031 10.886719 19.15625 10.921875 19.101562 C 10.960938 19.050781 11.035156 18.914062 11.09375 18.800781 C 11.148438 18.6875 11.222656 18.546875 11.257812 18.492188 C 11.292969 18.433594 11.320312 18.375 11.320312 18.359375 C 11.320312 18.34375 11.335938 18.316406 11.351562 18.296875 C 11.367188 18.273438 11.378906 18.242188 11.378906 18.226562 C 11.378906 18.207031 11.386719 18.191406 11.394531 18.191406 C 11.40625 18.191406 11.421875 18.171875 11.425781 18.152344 C 11.433594 18.128906 11.449219 18.078125 11.464844 18.042969 C 11.480469 18.007812 11.507812 17.957031 11.519531 17.925781 C 11.535156 17.898438 11.546875 17.863281 11.546875 17.851562 C 11.546875 17.839844 11.5625 17.792969 11.582031 17.75 C 11.601562 17.707031 11.628906 17.667969 11.640625 17.660156 C 11.648438 17.65625 11.65625 17.632812 11.65625 17.609375 C 11.660156 17.585938 11.675781 17.535156 11.695312 17.492188 C 11.714844 17.453125 11.730469 17.402344 11.730469 17.378906 C 11.730469 17.359375 11.753906 17.285156 11.777344 17.210938 C 11.804688 17.140625 11.839844 17.058594 11.855469 17.03125 C 11.867188 17 11.882812 16.964844 11.882812 16.949219 C 11.882812 16.929688 11.898438 16.878906 11.917969 16.839844 C 11.941406 16.796875 11.957031 16.75 11.957031 16.738281 C 11.957031 16.722656 11.96875 16.691406 11.984375 16.671875 C 12 16.652344 12.011719 16.601562 12.015625 16.558594 C 12.015625 16.519531 12.023438 16.464844 12.039062 16.4375 C 12.054688 16.410156 12.066406 16.363281 12.066406 16.324219 C 12.066406 16.289062 12.082031 16.238281 12.097656 16.214844 C 12.109375 16.1875 12.125 16.132812 12.125 16.09375 C 12.125 16.050781 12.136719 15.996094 12.152344 15.972656 C 12.171875 15.9375 12.179688 15.855469 12.179688 15.660156 C 12.179688 15.445312 12.175781 15.386719 12.152344 15.363281 C 12.128906 15.34375 12.097656 15.339844 12.007812 15.347656 C 11.941406 15.355469 11.867188 15.371094 11.839844 15.386719 C 11.8125 15.398438 11.769531 15.410156 11.742188 15.410156 C 11.714844 15.410156 11.671875 15.421875 11.644531 15.4375 C 11.613281 15.449219 11.5625 15.476562 11.527344 15.488281 C 11.492188 15.503906 11.429688 15.53125 11.394531 15.550781 C 11.351562 15.566406 11.308594 15.578125 11.289062 15.578125 C 11.269531 15.578125 11.234375 15.59375 11.210938 15.613281 C 11.183594 15.632812 11.070312 15.691406 10.957031 15.746094 C 10.847656 15.800781 10.730469 15.859375 10.703125 15.878906 C 10.671875 15.902344 10.636719 15.914062 10.628906 15.914062 C 10.613281 15.914062 10.5625 15.941406 10.515625 15.980469 C 10.464844 16.015625 10.414062 16.046875 10.402344 16.046875 C 10.390625 16.046875 10.324219 16.085938 10.257812 16.128906 C 10.191406 16.175781 10.121094 16.210938 10.105469 16.214844 C 10.085938 16.214844 10.050781 16.234375 10.03125 16.261719 C 10.003906 16.285156 9.941406 16.335938 9.886719 16.367188 C 9.832031 16.402344 9.757812 16.449219 9.722656 16.472656 C 9.6875 16.492188 9.652344 16.511719 9.640625 16.511719 C 9.632812 16.511719 9.585938 16.550781 9.535156 16.597656 C 9.484375 16.640625 9.433594 16.679688 9.417969 16.679688 C 9.402344 16.679688 9.355469 16.710938 9.3125 16.75 C 9.273438 16.789062 9.210938 16.84375 9.179688 16.871094 C 9.144531 16.902344 9.113281 16.921875 9.105469 16.921875 C 9.097656 16.921875 9.054688 16.960938 9.007812 17.007812 C 8.960938 17.054688 8.878906 17.121094 8.824219 17.164062 C 8.765625 17.199219 8.578125 17.375 8.402344 17.546875 C 8.226562 17.722656 8.050781 17.910156 8.011719 17.964844 C 7.972656 18.015625 7.90625 18.09375 7.863281 18.132812 C 7.824219 18.171875 7.777344 18.226562 7.765625 18.257812 C 7.75 18.289062 7.707031 18.347656 7.667969 18.386719 C 7.628906 18.429688 7.574219 18.5 7.546875 18.546875 C 7.519531 18.59375 7.480469 18.648438 7.457031 18.667969 C 7.4375 18.6875 7.417969 18.71875 7.421875 18.730469 C 7.421875 18.742188 7.390625 18.792969 7.351562 18.84375 C 7.3125 18.890625 7.214844 19.027344 7.132812 19.152344 C 7.050781 19.273438 6.972656 19.394531 6.957031 19.421875 C 6.941406 19.449219 6.910156 19.492188 6.890625 19.519531 C 6.867188 19.542969 6.832031 19.601562 6.808594 19.648438 C 6.789062 19.695312 6.753906 19.765625 6.734375 19.808594 C 6.71875 19.847656 6.671875 19.929688 6.636719 19.984375 C 6.597656 20.039062 6.53125 20.160156 6.484375 20.253906 C 6.433594 20.355469 6.371094 20.449219 6.320312 20.5 C 6.269531 20.546875 6.195312 20.59375 6.136719 20.613281 L 6.042969 20.648438 C 5.832031 20.550781 5.753906 20.527344 5.738281 20.527344 C 5.71875 20.527344 5.664062 20.5 5.609375 20.46875 C 5.558594 20.4375 5.503906 20.402344 5.484375 20.386719 C 5.464844 20.367188 5.398438 20.3125 5.332031 20.257812 C 5.234375 20.179688 5.195312 20.128906 5.144531 20.027344 C 5.109375 19.957031 5.074219 19.894531 5.0625 19.886719 C 5.050781 19.878906 5.03125 19.839844 5.015625 19.804688 C 5 19.765625 4.984375 19.691406 4.980469 19.644531 C 4.972656 19.597656 4.957031 19.546875 4.941406 19.53125 C 4.925781 19.515625 4.917969 19.449219 4.917969 19.339844 C 4.917969 19.222656 4.914062 19.160156 4.890625 19.136719 C 4.871094 19.109375 4.867188 19.050781 4.863281 18.929688 C 4.863281 18.8125 4.855469 18.75 4.835938 18.722656 C 4.824219 18.703125 4.804688 18.613281 4.796875 18.507812 C 4.789062 18.414062 4.777344 18.324219 4.769531 18.3125 C 4.757812 18.304688 4.746094 18.226562 4.742188 18.144531 C 4.734375 18.0625 4.714844 17.980469 4.703125 17.960938 C 4.6875 17.9375 4.675781 17.878906 4.675781 17.828125 C 4.675781 17.773438 4.664062 17.71875 4.648438 17.699219 C 4.632812 17.675781 4.621094 17.621094 4.621094 17.574219 C 4.621094 17.523438 4.613281 17.464844 4.597656 17.441406 C 4.585938 17.417969 4.570312 17.351562 4.5625 17.296875 C 4.558594 17.242188 4.542969 17.167969 4.53125 17.136719 C 4.519531 17.105469 4.492188 17.019531 4.46875 16.941406 C 4.449219 16.867188 4.421875 16.792969 4.410156 16.785156 C 4.402344 16.773438 4.398438 16.75 4.398438 16.738281 C 4.398438 16.722656 4.382812 16.683594 4.367188 16.652344 C 4.351562 16.621094 4.339844 16.582031 4.339844 16.570312 C 4.339844 16.554688 4.316406 16.488281 4.285156 16.417969 C 4.25 16.351562 4.207031 16.261719 4.1875 16.214844 C 4.164062 16.167969 4.136719 16.125 4.121094 16.117188 C 4.109375 16.109375 4.097656 16.089844 4.097656 16.078125 C 4.097656 16.066406 4.058594 15.996094 4.011719 15.925781 C 3.960938 15.855469 3.816406 15.6875 3.6875 15.554688 C 3.542969 15.40625 3.421875 15.300781 3.371094 15.273438 C 3.328125 15.253906 3.285156 15.222656 3.28125 15.210938 C 3.28125 15.199219 3.246094 15.183594 3.207031 15.175781 C 3.167969 15.167969 3.109375 15.152344 3.078125 15.136719 C 3.042969 15.125 2.980469 15.113281 2.941406 15.113281 C 2.898438 15.113281 2.863281 15.105469 2.855469 15.09375 C 2.851562 15.082031 2.769531 15.074219 2.675781 15.074219 C 2.582031 15.074219 2.488281 15.085938 2.476562 15.09375 C 2.460938 15.101562 2.429688 15.113281 2.410156 15.113281 Z M 2.410156 15.113281 " fill-opacity="1" fill-rule="evenodd"/></g></g></g></g></g></svg>