<svg xmlns="http://www.w3.org/2000/svg" xmlns:xlink="http://www.w3.org/1999/xlink" width="58" zoomAndPan="magnify" viewBox="0 0 43.5 32.999998" height="44" preserveAspectRatio="xMidYMid meet" version="1.0"><defs><filter x="0%" y="0%" width="100%" height="100%" id="638c67c6f3"><feColorMatrix values="0 0 0 0 1 0 0 0 0 1 0 0 0 0 1 0 0 0 1 0" color-interpolation-filters="sRGB"/></filter><clipPath id="2ea894fd26"><path d="M 0 0.1875 L 43 0.1875 L 43 32.8125 L 0 32.8125 Z M 0 0.1875 " clip-rule="nonzero"/></clipPath><mask id="8fc549ce83"><g filter="url(#638c67c6f3)"><rect x="-4.35" width="52.2" fill="#000000" y="-3.3" height="39.599998" fill-opacity="0.15"/></g></mask><clipPath id="0b66e498bb"><path d="M 7 1 L 32 1 L 32 11 L 7 11 Z M 7 1 " clip-rule="nonzero"/></clipPath><clipPath id="16df63b3dc"><path d="M 2.183594 0.1875 L 42.855469 3.21875 L 40.648438 32.792969 L -0.0195312 29.765625 Z M 2.183594 0.1875 " clip-rule="nonzero"/></clipPath><clipPath id="86a8ac8e8c"><path d="M 2.183594 0.1875 L 42.855469 3.21875 L 40.648438 32.792969 L -0.0195312 29.765625 Z M 2.183594 0.1875 " clip-rule="nonzero"/></clipPath><clipPath id="ff05e2f847"><path d="M 7 23 L 30 23 L 30 32 L 7 32 Z M 7 23 " clip-rule="nonzero"/></clipPath><clipPath id="9a936d197a"><path d="M 2.183594 0.1875 L 42.855469 3.21875 L 40.648438 32.792969 L -0.0195312 29.765625 Z M 2.183594 0.1875 " clip-rule="nonzero"/></clipPath><clipPath id="f46dc4dcb7"><path d="M 2.183594 0.1875 L 42.855469 3.21875 L 40.648438 32.792969 L -0.0195312 29.765625 Z M 2.183594 0.1875 " clip-rule="nonzero"/></clipPath><clipPath id="00561da6bf"><path d="M 16 18 L 23 18 L 23 26 L 16 26 Z M 16 18 " clip-rule="nonzero"/></clipPath><clipPath id="2e884bed58"><path d="M 2.183594 0.1875 L 42.855469 3.21875 L 40.648438 32.792969 L -0.0195312 29.765625 Z M 2.183594 0.1875 " clip-rule="nonzero"/></clipPath><clipPath id="f7e6508d38"><path d="M 2.183594 0.1875 L 42.855469 3.21875 L 40.648438 32.792969 L -0.0195312 29.765625 Z M 2.183594 0.1875 " clip-rule="nonzero"/></clipPath><clipPath id="cbfa0e5cac"><path d="M 1 12 L 11 12 L 11 17 L 1 17 Z M 1 12 " clip-rule="nonzero"/></clipPath><clipPath id="221fb05b53"><path d="M 2.183594 0.1875 L 42.855469 3.21875 L 40.648438 32.792969 L -0.0195312 29.765625 Z M 2.183594 0.1875 " clip-rule="nonzero"/></clipPath><clipPath id="da09df3a78"><path d="M 2.183594 0.1875 L 42.855469 3.21875 L 40.648438 32.792969 L -0.0195312 29.765625 Z M 2.183594 0.1875 " clip-rule="nonzero"/></clipPath><clipPath id="9724ea733c"><path d="M 31 16 L 42 16 L 42 20 L 31 20 Z M 31 16 " clip-rule="nonzero"/></clipPath><clipPath id="31471003ab"><path d="M 2.183594 0.1875 L 42.855469 3.21875 L 40.648438 32.792969 L -0.0195312 29.765625 Z M 2.183594 0.1875 " clip-rule="nonzero"/></clipPath><clipPath id="c03d1ea546"><path d="M 2.183594 0.1875 L 42.855469 3.21875 L 40.648438 32.792969 L -0.0195312 29.765625 Z M 2.183594 0.1875 " clip-rule="nonzero"/></clipPath><clipPath id="7aabd8b6d8"><path d="M 32 20 L 40 20 L 40 24 L 32 24 Z M 32 20 " clip-rule="nonzero"/></clipPath><clipPath id="1b3d0e8cb5"><path d="M 2.183594 0.1875 L 42.855469 3.21875 L 40.648438 32.792969 L -0.0195312 29.765625 Z M 2.183594 0.1875 " clip-rule="nonzero"/></clipPath><clipPath id="96fb6c017c"><path d="M 2.183594 0.1875 L 42.855469 3.21875 L 40.648438 32.792969 L -0.0195312 29.765625 Z M 2.183594 0.1875 " clip-rule="nonzero"/></clipPath><clipPath id="da94651696"><path d="M 3 18 L 11 18 L 11 21 L 3 21 Z M 3 18 " clip-rule="nonzero"/></clipPath><clipPath id="e9fc9e7d22"><path d="M 2.183594 0.1875 L 42.855469 3.21875 L 40.648438 32.792969 L -0.0195312 29.765625 Z M 2.183594 0.1875 " clip-rule="nonzero"/></clipPath><clipPath id="5aba954c76"><path d="M 2.183594 0.1875 L 42.855469 3.21875 L 40.648438 32.792969 L -0.0195312 29.765625 Z M 2.183594 0.1875 " clip-rule="nonzero"/></clipPath><clipPath id="d584ee5e79"><path d="M 23 14 L 28 14 L 28 18 L 23 18 Z M 23 14 " clip-rule="nonzero"/></clipPath><clipPath id="6e187ed4c8"><path d="M 2.183594 0.1875 L 42.855469 3.21875 L 40.648438 32.792969 L -0.0195312 29.765625 Z M 2.183594 0.1875 " clip-rule="nonzero"/></clipPath><clipPath id="920baceb6f"><path d="M 2.183594 0.1875 L 42.855469 3.21875 L 40.648438 32.792969 L -0.0195312 29.765625 Z M 2.183594 0.1875 " clip-rule="nonzero"/></clipPath><clipPath id="41ab3049fb"><path d="M 14 13 L 18 13 L 18 17 L 14 17 Z M 14 13 " clip-rule="nonzero"/></clipPath><clipPath id="0e4fdcc3df"><path d="M 2.183594 0.1875 L 42.855469 3.21875 L 40.648438 32.792969 L -0.0195312 29.765625 Z M 2.183594 0.1875 " clip-rule="nonzero"/></clipPath><clipPath id="2ec48a58ca"><path d="M 2.183594 0.1875 L 42.855469 3.21875 L 40.648438 32.792969 L -0.0195312 29.765625 Z M 2.183594 0.1875 " clip-rule="nonzero"/></clipPath><clipPath id="ccc921a356"><rect x="0" width="43" y="0" height="33"/></clipPath></defs><g clip-path="url(#2ea894fd26)"><g mask="url(#8fc549ce83)"><g transform="matrix(1, 0, 0, 1, -0, 0.000000000000006606)"><g clip-path="url(#ccc921a356)"><g clip-path="url(#0b66e498bb)"><g clip-path="url(#16df63b3dc)"><g clip-path="url(#86a8ac8e8c)"><path fill="#6d2a93" d="M 28.128906 5.464844 C 27.746094 5.871094 27.335938 6.261719 26.976562 6.6875 C 26.507812 7.25 26.105469 7.859375 25.617188 8.402344 C 25.269531 8.785156 24.84375 9.121094 24.410156 9.417969 C 23.972656 9.722656 23.476562 9.71875 23.03125 9.371094 C 22.632812 9.058594 22.191406 8.910156 21.667969 8.859375 C 21.320312 8.828125 20.988281 8.648438 20.640625 8.5625 C 19.617188 8.308594 18.585938 8.171875 17.523438 8.335938 C 17.148438 8.390625 16.742188 8.375 16.371094 8.304688 C 16.15625 8.265625 15.898438 8.097656 15.796875 7.921875 C 15.132812 6.804688 14.164062 5.851562 13.660156 4.644531 C 13.582031 4.464844 13.425781 4.308594 13.300781 4.132812 C 12.859375 4.179688 12.78125 4.5 12.605469 4.742188 C 12.089844 5.457031 11.5625 6.15625 11.035156 6.855469 C 10.925781 7.003906 10.800781 7.136719 10.683594 7.277344 C 10.183594 7.871094 9.695312 8.476562 9.167969 9.054688 C 8.996094 9.242188 8.742188 9.371094 8.507812 9.503906 C 8.25 9.648438 7.980469 9.8125 7.679688 9.550781 C 7.382812 9.289062 7.285156 8.972656 7.492188 8.652344 C 7.875 8.066406 8.183594 7.390625 8.71875 6.957031 C 9.425781 6.386719 9.847656 5.652344 10.375 4.988281 C 10.949219 4.261719 11.378906 3.433594 11.851562 2.636719 C 12.011719 2.371094 12.097656 2.070312 12.214844 1.785156 C 12.480469 1.152344 13.207031 1.011719 13.726562 1.507812 C 13.804688 1.578125 13.871094 1.667969 13.914062 1.757812 C 14.320312 2.59375 14.710938 3.4375 15.121094 4.273438 C 15.265625 4.566406 15.441406 4.855469 15.640625 5.121094 C 15.863281 5.417969 16.175781 5.65625 16.363281 5.964844 C 16.585938 6.335938 16.910156 6.402344 17.320312 6.449219 C 18.722656 6.609375 20.125 6.796875 21.519531 7 C 21.867188 7.050781 22.207031 7.199219 22.539062 7.324219 C 23.367188 7.632812 23.832031 7.535156 24.332031 6.882812 C 25.1875 5.765625 26.03125 4.644531 27.179688 3.746094 C 27.460938 3.523438 27.609375 3.160156 27.84375 2.882812 C 28.332031 2.304688 28.859375 2.285156 29.328125 2.886719 C 29.546875 3.164062 29.660156 3.527344 29.738281 3.867188 C 30.046875 5.210938 30.3125 6.5625 30.621094 7.90625 C 30.753906 8.476562 30.960938 9.035156 31.117188 9.605469 C 31.167969 9.800781 31.21875 10.011719 31.195312 10.207031 C 31.136719 10.640625 30.75 10.839844 30.289062 10.707031 C 29.863281 10.582031 29.546875 10.34375 29.445312 9.929688 C 29.175781 8.839844 28.925781 7.746094 28.660156 6.65625 C 28.566406 6.269531 28.449219 5.894531 28.34375 5.511719 C 28.269531 5.496094 28.199219 5.480469 28.128906 5.464844 Z M 28.128906 5.464844 " fill-opacity="1" fill-rule="nonzero"/></g></g></g><g clip-path="url(#ff05e2f847)"><g clip-path="url(#9a936d197a)"><g clip-path="url(#f46dc4dcb7)"><path fill="#6d2a93" d="M 20.878906 30.949219 C 20.382812 30.949219 19.886719 30.949219 19.390625 30.941406 C 19.253906 30.9375 19.109375 30.929688 18.980469 30.890625 C 17.800781 30.519531 16.628906 30.132812 15.449219 29.765625 C 14.898438 29.59375 14.3125 29.503906 13.792969 29.28125 C 12.765625 28.835938 11.757812 28.339844 10.765625 27.824219 C 10.410156 27.640625 10.09375 27.371094 9.796875 27.105469 C 9.21875 26.585938 8.652344 26.054688 8.117188 25.496094 C 7.902344 25.273438 7.761719 24.976562 7.636719 24.695312 C 7.480469 24.335938 7.609375 23.882812 7.871094 23.722656 C 8.132812 23.558594 8.578125 23.648438 8.929688 23.945312 C 9.054688 24.046875 9.171875 24.160156 9.269531 24.285156 C 10.066406 25.34375 11.105469 26.140625 12.378906 26.65625 C 13.496094 27.105469 14.636719 27.511719 15.765625 27.945312 C 17.265625 28.523438 18.878906 28.667969 20.433594 29.019531 C 21.050781 29.15625 21.769531 29.066406 22.402344 28.925781 C 23.875 28.601562 25.332031 28.207031 26.777344 27.796875 C 27.160156 27.6875 27.496094 27.425781 27.84375 27.222656 C 28.46875 26.851562 28.769531 26.886719 29.273438 27.410156 C 29.753906 27.90625 29.824219 28.523438 29.382812 28.925781 C 28.972656 29.296875 28.496094 29.601562 27.871094 29.628906 C 27.65625 29.640625 27.425781 29.667969 27.230469 29.742188 C 26.546875 29.996094 25.894531 30.316406 25.199219 30.527344 C 23.804688 30.953125 22.355469 31.097656 20.878906 30.949219 Z M 20.878906 30.949219 " fill-opacity="1" fill-rule="nonzero"/></g></g></g><g clip-path="url(#00561da6bf)"><g clip-path="url(#2e884bed58)"><g clip-path="url(#f7e6508d38)"><path fill="#6d2a93" d="M 19.417969 24.066406 C 19.027344 24.167969 18.660156 24.265625 18.292969 24.367188 C 17.753906 24.511719 17.25 24.457031 16.808594 24.105469 C 16.507812 23.875 16.386719 23.4375 16.507812 23.136719 C 16.640625 22.808594 16.9375 22.800781 17.253906 22.773438 C 17.550781 22.75 17.878906 22.734375 18.132812 22.613281 C 18.808594 22.289062 18.882812 21.625 18.367188 21.113281 C 18.128906 20.871094 17.890625 20.605469 17.734375 20.316406 C 17.484375 19.84375 17.597656 19.503906 18.027344 19.167969 C 18.609375 18.707031 19.847656 18.679688 20.449219 19.117188 C 20.980469 19.507812 21.132812 20.140625 20.765625 20.691406 C 20.328125 21.335938 20.246094 22.027344 20.410156 22.746094 C 20.542969 23.328125 20.855469 23.480469 21.496094 23.367188 C 22.207031 23.242188 22.492188 23.371094 22.644531 23.894531 C 22.835938 24.5625 22.675781 24.898438 22.042969 25.109375 C 21.261719 25.371094 20.566406 25.203125 19.964844 24.6875 C 19.785156 24.535156 19.648438 24.332031 19.417969 24.066406 Z M 19.417969 24.066406 " fill-opacity="1" fill-rule="nonzero"/></g></g></g><g clip-path="url(#cbfa0e5cac)"><g clip-path="url(#221fb05b53)"><g clip-path="url(#da09df3a78)"><path fill="#6d2a93" d="M 9.195312 16.589844 C 8.421875 16.378906 7.652344 16.167969 6.882812 15.957031 C 5.285156 15.523438 3.691406 15.085938 2.089844 14.652344 C 1.492188 14.492188 1.25 14.097656 1.234375 13.5625 C 1.21875 13.097656 1.441406 12.890625 1.941406 12.960938 C 2.265625 13.003906 2.582031 13.117188 2.90625 13.195312 C 4.835938 13.675781 6.769531 14.144531 8.695312 14.644531 C 9.308594 14.800781 9.917969 14.996094 10.144531 15.671875 C 10.359375 16.316406 10.167969 16.609375 9.453125 16.585938 C 9.371094 16.585938 9.289062 16.566406 9.207031 16.554688 C 9.203125 16.566406 9.199219 16.578125 9.195312 16.589844 Z M 9.195312 16.589844 " fill-opacity="1" fill-rule="nonzero"/></g></g></g><g clip-path="url(#9724ea733c)"><g clip-path="url(#31471003ab)"><g clip-path="url(#c03d1ea546)"><path fill="#6d2a93" d="M 33.179688 19.144531 C 32.957031 19.128906 32.714844 19.160156 32.523438 19.085938 C 32.3125 19 32.039062 18.835938 32 18.671875 C 31.964844 18.519531 32.160156 18.242188 32.335938 18.152344 C 32.664062 17.984375 33.046875 17.855469 33.417969 17.804688 C 34.972656 17.609375 36.535156 17.453125 38.089844 17.265625 C 38.855469 17.179688 39.617188 17.066406 40.378906 16.957031 C 40.773438 16.894531 41.082031 16.988281 41.320312 17.296875 C 41.527344 17.566406 41.496094 17.835938 41.328125 18.082031 C 41.234375 18.214844 41.0625 18.339844 40.898438 18.390625 C 40.585938 18.484375 40.257812 18.542969 39.929688 18.578125 C 38.394531 18.734375 36.855469 18.882812 35.320312 19.023438 C 34.609375 19.085938 33.898438 19.132812 33.1875 19.191406 C 33.183594 19.175781 33.179688 19.160156 33.179688 19.144531 Z M 33.179688 19.144531 " fill-opacity="1" fill-rule="nonzero"/></g></g></g><g clip-path="url(#7aabd8b6d8)"><g clip-path="url(#1b3d0e8cb5)"><g clip-path="url(#96fb6c017c)"><path fill="#6d2a93" d="M 33.050781 20.683594 C 34.644531 21.007812 36.238281 21.320312 37.824219 21.664062 C 38.195312 21.746094 38.550781 21.917969 38.894531 22.078125 C 39.308594 22.269531 39.566406 23.125 39.351562 23.5 C 39.1875 23.777344 38.804688 23.894531 38.40625 23.714844 C 37.144531 23.136719 35.78125 22.941406 34.421875 22.703125 C 33.839844 22.601562 33.292969 22.308594 32.734375 22.09375 C 32.632812 22.058594 32.535156 21.992188 32.460938 21.921875 C 32.222656 21.699219 31.992188 21.453125 32.144531 21.117188 C 32.308594 20.753906 32.648438 20.679688 33.050781 20.683594 Z M 33.050781 20.683594 " fill-opacity="1" fill-rule="nonzero"/></g></g></g><g clip-path="url(#da94651696)"><g clip-path="url(#e9fc9e7d22)"><g clip-path="url(#5aba954c76)"><path fill="#6d2a93" d="M 9.199219 18.242188 C 9.378906 18.339844 9.714844 18.46875 9.96875 18.675781 C 10.261719 18.914062 10.503906 19.246094 10.359375 19.625 C 10.21875 19.988281 9.820312 19.992188 9.457031 20.03125 C 7.867188 20.195312 6.28125 20.375 4.691406 20.53125 C 4.429688 20.554688 4.136719 20.523438 3.882812 20.445312 C 3.484375 20.320312 3.234375 19.910156 3.257812 19.539062 C 3.28125 19.179688 3.488281 18.972656 4.03125 18.894531 C 5.582031 18.671875 7.140625 18.476562 8.695312 18.269531 C 8.804688 18.257812 8.917969 18.257812 9.199219 18.242188 Z M 9.199219 18.242188 " fill-opacity="1" fill-rule="nonzero"/></g></g></g><g clip-path="url(#d584ee5e79)"><g clip-path="url(#6e187ed4c8)"><g clip-path="url(#920baceb6f)"><path fill="#6d2a93" d="M 27.125 16.414062 C 27.097656 16.5625 27.085938 16.714844 27.046875 16.863281 C 26.835938 17.667969 26.109375 18.078125 25.265625 17.871094 C 24.191406 17.605469 23.714844 16.964844 23.863281 16.113281 C 23.96875 15.5 24.414062 15.144531 24.867188 14.785156 C 24.996094 14.683594 25.21875 14.636719 25.402344 14.632812 C 26.304688 14.605469 27.242188 15.589844 27.125 16.414062 Z M 27.125 16.414062 " fill-opacity="1" fill-rule="nonzero"/></g></g></g><g clip-path="url(#41ab3049fb)"><g clip-path="url(#0e4fdcc3df)"><g clip-path="url(#2ec48a58ca)"><path fill="#6d2a93" d="M 17.964844 14.753906 C 17.867188 15.644531 17.042969 16.378906 16.253906 16.277344 C 15.289062 16.148438 14.621094 15.453125 14.714844 14.675781 C 14.820312 13.808594 15.53125 13.300781 16.492188 13.410156 C 17.457031 13.523438 18.042969 14.0625 17.964844 14.753906 Z M 17.964844 14.753906 " fill-opacity="1" fill-rule="nonzero"/></g></g></g></g></g></g></g></svg>