<svg xmlns="http://www.w3.org/2000/svg" xmlns:xlink="http://www.w3.org/1999/xlink" width="65" zoomAndPan="magnify" viewBox="0 0 48.75 50.999998" height="68" preserveAspectRatio="xMidYMid meet" version="1.0"><defs><filter x="0%" y="0%" width="100%" height="100%" id="2991402761"><feColorMatrix values="0 0 0 0 1 0 0 0 0 1 0 0 0 0 1 0 0 0 1 0" color-interpolation-filters="sRGB"/></filter><clipPath id="630c0e98f1"><path d="M 0 0.128906 L 48 0.128906 L 48 50.867188 L 0 50.867188 Z M 0 0.128906 " clip-rule="nonzero"/></clipPath><mask id="50205decfc"><g filter="url(#2991402761)"><rect x="-4.875" width="58.5" fill="#000000" y="-5.1" height="61.199998" fill-opacity="0.15"/></g></mask><clipPath id="56dd162344"><path d="M 4 11 L 20 11 L 20 29 L 4 29 Z M 4 11 " clip-rule="nonzero"/></clipPath><clipPath id="9ae7050c79"><path d="M 0 17.605469 L 25.148438 0.183594 L 47.667969 32.695312 L 22.519531 50.117188 Z M 0 17.605469 " clip-rule="nonzero"/></clipPath><clipPath id="45a87dfad2"><path d="M 0 17.605469 L 25.148438 0.183594 L 47.667969 32.695312 L 22.519531 50.117188 Z M 0 17.605469 " clip-rule="nonzero"/></clipPath><clipPath id="8dd798a5bb"><path d="M 23 15 L 38 15 L 38 30 L 23 30 Z M 23 15 " clip-rule="nonzero"/></clipPath><clipPath id="a635d1560a"><path d="M 0 17.605469 L 25.148438 0.183594 L 47.667969 32.695312 L 22.519531 50.117188 Z M 0 17.605469 " clip-rule="nonzero"/></clipPath><clipPath id="ca03288caf"><path d="M 0 17.605469 L 25.148438 0.183594 L 47.667969 32.695312 L 22.519531 50.117188 Z M 0 17.605469 " clip-rule="nonzero"/></clipPath><clipPath id="4657383450"><path d="M 19 30 L 34 30 L 34 46 L 19 46 Z M 19 30 " clip-rule="nonzero"/></clipPath><clipPath id="19f7354449"><path d="M 0 17.605469 L 25.148438 0.183594 L 47.667969 32.695312 L 22.519531 50.117188 Z M 0 17.605469 " clip-rule="nonzero"/></clipPath><clipPath id="7916c3c36c"><path d="M 0 17.605469 L 25.148438 0.183594 L 47.667969 32.695312 L 22.519531 50.117188 Z M 0 17.605469 " clip-rule="nonzero"/></clipPath><clipPath id="b50d0abbb0"><rect x="0" width="48" y="0" height="51"/></clipPath></defs><g clip-path="url(#630c0e98f1)"><g mask="url(#50205decfc)"><g transform="matrix(1, 0, 0, 1, 0, 0.000000000000004607)"><g clip-path="url(#b50d0abbb0)"><g clip-path="url(#56dd162344)"><g clip-path="url(#9ae7050c79)"><g clip-path="url(#45a87dfad2)"><path fill="#6d2a93" d="M 9.515625 25.375 C 10.136719 24.902344 10.59375 24.300781 11.027344 23.671875 C 10.964844 24.34375 11.003906 25.023438 11.183594 25.695312 C 11.550781 27.089844 12.808594 28.832031 14.441406 28.703125 C 16.027344 28.578125 16.167969 26.8125 15.808594 25.613281 C 15.660156 25.125 15.441406 24.644531 15.203125 24.179688 C 16.332031 24.863281 17.566406 25.136719 18.757812 24.335938 C 19.757812 23.660156 20 22.371094 19.335938 21.371094 C 18.671875 20.375 17.445312 19.886719 16.300781 19.753906 C 15.679688 19.683594 15.058594 19.699219 14.453125 19.796875 C 14.855469 19.300781 15.214844 18.765625 15.515625 18.195312 C 16.167969 16.960938 16.738281 15.347656 16.480469 13.933594 C 16.257812 12.695312 15.058594 11.484375 13.714844 11.949219 C 12.347656 12.425781 11.789062 14.371094 11.515625 15.636719 C 11.378906 16.242188 11.308594 16.863281 11.296875 17.480469 C 10.867188 16.808594 10.390625 16.164062 9.855469 15.574219 C 8.957031 14.574219 7.671875 13.632812 6.25 13.878906 C 5.101562 14.082031 3.957031 15.023438 4 16.277344 C 4.054688 17.867188 5.925781 18.890625 7.128906 19.601562 C 7.691406 19.929688 8.273438 20.226562 8.871094 20.484375 C 8.683594 20.539062 8.492188 20.601562 8.304688 20.675781 C 7.191406 21.101562 5.996094 21.828125 5.390625 22.890625 C 4.804688 23.929688 5.199219 25.117188 6.199219 25.71875 C 7.273438 26.367188 8.558594 26.109375 9.515625 25.375 Z M 14.359375 27.640625 C 13.804688 27.699219 13.25 27.210938 12.921875 26.820312 C 12.492188 26.304688 12.222656 25.652344 12.113281 24.992188 C 11.941406 23.9375 12.160156 22.875 12.53125 21.882812 C 13.535156 23.335938 16.144531 27.449219 14.359375 27.640625 Z M 18.660156 22.539062 C 18.695312 23.082031 18.261719 23.46875 17.789062 23.640625 C 17.238281 23.832031 16.675781 23.726562 16.160156 23.484375 C 15.101562 22.988281 14.183594 22.0625 13.390625 21.175781 C 14.273438 20.828125 15.242188 20.691406 16.1875 20.8125 C 17.09375 20.929688 18.597656 21.414062 18.664062 22.539062 Z M 12.546875 15.898438 C 12.738281 14.984375 13.511719 12.089844 14.902344 13.15625 C 16.050781 14.039062 15.296875 16.117188 14.828125 17.171875 C 14.332031 18.292969 13.609375 19.289062 12.703125 20.105469 C 12.304688 18.738281 12.253906 17.292969 12.546875 15.898438 Z M 7.792969 18.757812 C 7.070312 18.34375 6.332031 17.878906 5.710938 17.316406 C 5.183594 16.835938 4.824219 16.191406 5.3125 15.5625 C 6.25 14.355469 7.8125 15.054688 8.707031 15.902344 C 9.945312 17.074219 10.878906 18.679688 11.589844 20.226562 C 11.472656 20.21875 11.355469 20.207031 11.238281 20.203125 C 10.039062 19.859375 8.886719 19.375 7.796875 18.757812 Z M 6.261719 24.332031 C 5.71875 23.277344 7.414062 22.257812 8.152344 21.894531 C 9.066406 21.445312 10.070312 21.234375 11.078125 21.261719 C 11.179688 21.289062 11.28125 21.316406 11.386719 21.34375 C 10.628906 22.269531 10.105469 23.375 9.242188 24.210938 C 8.507812 24.929688 6.898438 25.566406 6.261719 24.332031 Z M 6.261719 24.332031 " fill-opacity="1" fill-rule="nonzero"/></g></g></g><g clip-path="url(#8dd798a5bb)"><g clip-path="url(#a635d1560a)"><g clip-path="url(#ca03288caf)"><path fill="#6d2a93" d="M 35.050781 16.632812 C 33.851562 16.535156 32.679688 17.070312 31.808594 17.871094 C 31.417969 18.230469 31.09375 18.644531 30.839844 19.09375 C 30.210938 17.257812 28.886719 15.550781 26.957031 15.429688 C 25.78125 15.355469 24.535156 16.070312 24.296875 17.28125 C 24.066406 18.4375 24.851562 19.503906 25.699219 20.195312 C 25.898438 20.359375 26.113281 20.511719 26.332031 20.65625 C 26.238281 20.667969 26.144531 20.683594 26.050781 20.699219 C 24.726562 20.941406 22.683594 21.820312 23.074219 23.519531 C 23.449219 25.152344 25.757812 24.792969 26.910156 24.386719 C 27.023438 24.347656 27.132812 24.304688 27.242188 24.257812 C 27.214844 24.304688 27.1875 24.351562 27.160156 24.398438 C 26.550781 25.480469 26.269531 26.796875 26.933594 27.921875 C 27.566406 28.992188 28.867188 29.453125 29.960938 28.761719 C 30.917969 28.15625 31.476562 26.992188 31.703125 25.878906 C 32.460938 26.785156 33.632812 27.625 34.792969 27.496094 C 35.535156 27.410156 36.003906 26.742188 36.042969 26.039062 C 36.09375 25.207031 35.554688 24.550781 35.007812 23.984375 C 34.195312 23.136719 33.292969 22.382812 32.335938 21.707031 C 33.109375 21.636719 33.875 21.464844 34.609375 21.183594 C 35.628906 20.796875 36.769531 20.117188 37.054688 18.976562 C 37.378906 17.675781 36.253906 16.734375 35.050781 16.632812 Z M 26.488281 19.464844 C 25.730469 18.878906 24.722656 17.628906 25.777344 16.8125 C 26.863281 15.980469 28.210938 16.863281 28.914062 17.753906 C 29.605469 18.628906 30.015625 19.664062 30.144531 20.757812 C 30.097656 20.796875 30.0625 20.847656 30.035156 20.898438 C 29.625 20.820312 29.210938 20.746094 28.796875 20.691406 C 27.96875 20.398438 27.179688 19.992188 26.492188 19.464844 Z M 27.308594 23.0625 C 26.808594 23.3125 26.269531 23.515625 25.714844 23.601562 C 25.304688 23.664062 24.273438 23.816406 24.109375 23.304688 C 23.914062 22.695312 24.746094 22.242188 25.183594 22.058594 C 25.726562 21.824219 26.296875 21.710938 26.886719 21.671875 C 27.441406 21.636719 28 21.667969 28.550781 21.734375 C 28.722656 21.792969 28.894531 21.847656 29.066406 21.898438 C 29.03125 21.929688 29 21.964844 28.964844 21.996094 C 28.441406 22.398438 27.894531 22.765625 27.308594 23.0625 Z M 30.195312 26.929688 C 29.90625 27.453125 29.363281 28.15625 28.679688 28.03125 C 27.429688 27.796875 27.5 26.183594 27.890625 25.3125 C 28.289062 24.414062 28.910156 23.535156 29.644531 22.808594 C 29.84375 22.65625 30.042969 22.5 30.238281 22.339844 C 30.324219 23.027344 30.503906 23.703125 30.773438 24.339844 C 30.78125 24.632812 30.769531 24.921875 30.730469 25.214844 C 30.660156 25.816406 30.492188 26.398438 30.195312 26.929688 Z M 34.878906 25.519531 C 34.992188 25.753906 35.0625 26.097656 34.867188 26.316406 C 34.675781 26.535156 34.335938 26.410156 34.09375 26.328125 C 33.015625 25.953125 32.28125 25.105469 31.824219 24.09375 C 31.796875 23.558594 31.722656 23.023438 31.609375 22.496094 C 32.285156 22.964844 32.929688 23.480469 33.535156 24.035156 C 34.003906 24.464844 34.601562 24.9375 34.878906 25.519531 Z M 34.558594 20.058594 C 33.539062 20.496094 32.441406 20.707031 31.335938 20.683594 C 31.519531 19.863281 31.988281 19.105469 32.625 18.5625 C 33.378906 17.914062 34.820312 17.257812 35.742188 17.957031 C 36.742188 18.71875 35.199219 19.785156 34.558594 20.058594 Z M 34.558594 20.058594 " fill-opacity="1" fill-rule="nonzero"/></g></g></g><g clip-path="url(#4657383450)"><g clip-path="url(#19f7354449)"><g clip-path="url(#7916c3c36c)"><path fill="#6d2a93" d="M 26.613281 32.179688 C 26.273438 33.101562 26.144531 34.125 26.164062 35.132812 C 25.507812 34.382812 24.847656 33.640625 24.132812 32.953125 C 23.273438 32.125 22.074219 31.335938 20.816406 31.542969 C 19.539062 31.753906 19.027344 33.128906 19.542969 34.242188 C 20.121094 35.480469 21.601562 36.269531 22.769531 36.859375 C 23.113281 37.03125 23.460938 37.191406 23.820312 37.335938 C 22.671875 37.878906 21.695312 38.722656 21.039062 39.816406 C 20.433594 40.828125 20.132812 42.429688 21.492188 42.984375 C 22.722656 43.484375 24.058594 42.621094 24.925781 41.820312 C 25.300781 41.472656 25.632812 41.085938 25.9375 40.679688 C 25.898438 41.207031 25.910156 41.738281 26 42.273438 C 26.226562 43.597656 27.113281 45.621094 28.703125 45.675781 C 29.417969 45.703125 30.03125 45.207031 30.320312 44.578125 C 30.632812 43.898438 30.523438 43.125 30.304688 42.429688 C 30.039062 41.578125 29.695312 40.742188 29.308594 39.921875 C 29.675781 40.125 30.0625 40.300781 30.46875 40.433594 C 31.105469 40.644531 31.855469 40.851562 32.523438 40.667969 C 33.167969 40.488281 33.59375 39.957031 33.613281 39.289062 C 33.652344 38.015625 32.484375 36.976562 31.386719 36.550781 C 30.652344 36.265625 29.871094 36.164062 29.09375 36.195312 C 29.808594 35.480469 30.472656 34.726562 30.75 33.710938 C 31.0625 32.550781 30.65625 31.269531 29.550781 30.699219 C 28.269531 30.039062 27.0625 30.972656 26.613281 32.179688 Z M 20.402344 33.363281 C 20.382812 32.628906 21.03125 32.496094 21.632812 32.632812 C 22.25 32.769531 22.773438 33.15625 23.234375 33.570312 C 24.296875 34.527344 25.21875 35.667969 26.167969 36.742188 C 26.015625 36.746094 25.863281 36.761719 25.710938 36.78125 C 25.65625 36.789062 25.605469 36.796875 25.554688 36.804688 C 24.828125 36.597656 24.121094 36.332031 23.4375 36 C 22.796875 35.691406 22.179688 35.335938 21.605469 34.921875 C 21.085938 34.554688 20.425781 34.0625 20.402344 33.363281 Z M 23.609375 41.527344 C 23.179688 41.824219 22.339844 42.3125 21.800781 41.960938 C 21.132812 41.519531 21.925781 40.339844 22.25 39.914062 C 23.039062 38.875 24.214844 38.148438 25.492188 37.894531 C 25.75 37.964844 26.011719 38.023438 26.273438 38.078125 C 25.605469 39.390625 24.824219 40.679688 23.609375 41.527344 Z M 29.453125 43.726562 C 29.425781 44.210938 29.039062 44.796875 28.492188 44.546875 C 27.371094 44.035156 27 42.386719 26.980469 41.289062 C 26.964844 40.375 27.160156 39.476562 27.414062 38.597656 C 27.992188 39.632812 28.507812 40.703125 28.941406 41.8125 C 29.175781 42.402344 29.492188 43.074219 29.453125 43.726562 Z M 30.601562 37.410156 C 31.378906 37.617188 32.324219 38.167969 32.523438 39.011719 C 32.804688 40.195312 30.824219 39.464844 30.328125 39.246094 C 29.5 38.882812 28.777344 38.34375 28.191406 37.664062 C 28.203125 37.652344 28.21875 37.636719 28.234375 37.617188 C 28.308594 37.535156 28.351562 37.441406 28.375 37.34375 C 29.113281 37.210938 29.875 37.214844 30.601562 37.410156 Z M 29.503906 34 C 29.015625 34.980469 28.097656 35.675781 27.339844 36.453125 C 27.191406 35.402344 27.203125 34.339844 27.410156 33.292969 C 27.566406 32.5 28.140625 31.027344 29.1875 31.714844 C 29.976562 32.238281 29.878906 33.25 29.507812 34 Z M 29.503906 34 " fill-opacity="1" fill-rule="nonzero"/></g></g></g></g></g></g></g></svg>