<?xml version="1.0" encoding="UTF-8"?>
<svg version="1.1" xmlns="http://www.w3.org/2000/svg" width="16" height="16">
<path d="M0 0 C2 2 2 2 2.1953125 5.2578125 C2.13020833 8.83854167 2.06510417 12.41927083 2 16 C-2.62 16 -7.24 16 -12 16 C-14.27678571 5.95535714 -14.27678571 5.95535714 -13 1 C-8.63182208 0.30109153 -4.426216 -0.30880577 0 0 Z " fill="#916864" transform="translate(14,0)"/>
<path d="M0 0 C1.98 0 3.96 0 6 0 C6 1.98 6 3.96 6 6 C7.65 4.68 9.3 3.36 11 2 C11 4.64 11 7.28 11 10 C7.7 10 4.4 10 1 10 C0.67 6.7 0.34 3.4 0 0 Z " fill="#6B3888" transform="translate(5,6)"/>
<path d="M0 0 C0.66 0.99 1.32 1.98 2 3 C2.66 2.67 3.32 2.34 4 2 C3.1875 4.4375 3.1875 4.4375 2 7 C1.01 7.33 0.02 7.66 -1 8 C-1 6.02 -1 4.04 -1 2 C-2.98 2 -4.96 2 -7 2 C-6.67 5.3 -6.34 8.6 -6 12 C-6.66 12 -7.32 12 -8 12 C-8.33 8.7 -8.66 5.4 -9 2 C-5.54970958 -0.30019361 -4.05445642 -0.43132515 0 0 Z " fill="#E4D117" transform="translate(12,4)"/>
<path d="M0 0 C0.66 0.66 1.32 1.32 2 2 C1.75 4.5625 1.75 4.5625 1 7 C0.01 7.495 0.01 7.495 -1 8 C-2.125 4.25 -2.125 4.25 -1 2 C-2.79258558 2.08693141 -4.58415144 2.19510504 -6.375 2.3125 C-7.87160156 2.39951172 -7.87160156 2.39951172 -9.3984375 2.48828125 C-10.25695312 2.65714844 -11.11546875 2.82601563 -12 3 C-12.66 3.99 -13.32 4.98 -14 6 C-13.67 4.35 -13.34 2.7 -13 1 C-8.63182208 0.30109153 -4.426216 -0.30880577 0 0 Z " fill="#693787" transform="translate(14,0)"/>
<path d="M0 0 C0.66 0 1.32 0 2 0 C2.33 0.66 2.66 1.32 3 2 C3.66 1.67 4.32 1.34 5 1 C4.1875 3.4375 4.1875 3.4375 3 6 C2.01 6.33 1.02 6.66 0 7 C0 4.69 0 2.38 0 0 Z " fill="#F0DF0D" transform="translate(11,5)"/>
<path d="M0 0 C0.99 0.495 0.99 0.495 2 1 C2.59355614 3.64860427 2.74209269 6.29197322 3 9 C2.34 9 1.68 9 1 9 C0.67 6.03 0.34 3.06 0 0 Z " fill="#6B3787" transform="translate(1,7)"/>
</svg>
