<?xml version="1.0" encoding="UTF-8"?>
<svg version="1.1" xmlns="http://www.w3.org/2000/svg" width="16" height="16">
<path d="M0 0 C2 2 2 2 2.1953125 5.2578125 C2.13020833 8.83854167 2.06510417 12.41927083 2 16 C-2.62 16 -7.24 16 -12 16 C-14.27678571 5.95535714 -14.27678571 5.95535714 -13 1 C-8.63182208 0.30109153 -4.426216 -0.30880577 0 0 Z " fill="#673589" transform="translate(14,0)"/>
<path d="M0 0 C0 2.31 0 4.62 0 7 C-2.64 7 -5.28 7 -8 7 C-8.33 5.02 -8.66 3.04 -9 1 C-6.04335481 -0.4783226 -3.25770263 -0.06032783 0 0 Z " fill="#6B3987" transform="translate(16,9)"/>
<path d="M0 0 C0 0.99 0 1.98 0 3 C-4.455 3.495 -4.455 3.495 -9 4 C-8.67 5.98 -8.34 7.96 -8 10 C-9.32 9.67 -10.64 9.34 -12 9 C-12.125 6.125 -12.125 6.125 -12 3 C-8.6463584 -0.3536416 -4.57608788 0 0 0 Z " fill="#D8C123" transform="translate(16,6)"/>
<path d="M0 0 C0 0.66 0 1.32 0 2 C-3.61973402 3.31626692 -6.09567131 4 -10 4 C-10.33 4.66 -10.66 5.32 -11 6 C-11 5.01 -11 4.02 -11 3 C-11.66 3 -12.32 3 -13 3 C-12.67 2.01 -12.34 1.02 -12 0 C-7.6835078 -0.76173392 -4.25566547 -1.16063604 0 0 Z " fill="#9A745B" transform="translate(14,2)"/>
<path d="M0 0 C0 0.99 0 1.98 0 3 C-2.97 3 -5.94 3 -9 3 C-4.5 0 -4.5 0 0 0 Z " fill="#E6D315" transform="translate(16,6)"/>
</svg>
